<svg width="17" height="16" viewBox="0 0 17 16" fill="none" xmlns="http://www.w3.org/2000/svg">
<g id="arrow-right">
<path id="Icon" d="M8.69522 3.52864C8.95557 3.26829 9.37768 3.26829 9.63803 3.52864L13.638 7.52864C13.7631 7.65366 13.8333 7.82323 13.8333 8.00004C13.8333 8.17685 13.7631 8.34642 13.638 8.47145L9.63803 12.4714C9.37768 12.7318 8.95557 12.7318 8.69522 12.4714C8.43487 12.2111 8.43487 11.789 8.69522 11.5286L11.5571 8.66671L3.83329 8.66671C3.4651 8.66671 3.16663 8.36823 3.16663 8.00004C3.16663 7.63185 3.4651 7.33337 3.83329 7.33337H11.5572L8.69522 4.47145C8.43487 4.2111 8.43487 3.78899 8.69522 3.52864Z" fill="var(--primary-text-color)"/>
</g>
</svg>
