<svg width="17" height="16" viewBox="0 0 17 16" fill="none" xmlns="http://www.w3.org/2000/svg">
<g id="arrow-left">
<path id="Icon" d="M8.30473 3.52864C8.56508 3.78899 8.56508 4.2111 8.30473 4.47145L5.4428 7.33337H13.1667C13.5348 7.33337 13.8333 7.63185 13.8333 8.00004C13.8333 8.36823 13.5348 8.66671 13.1667 8.66671H5.4428L8.30473 11.5286C8.56508 11.789 8.56508 12.2111 8.30473 12.4714C8.04438 12.7318 7.62227 12.7318 7.36192 12.4714L3.36192 8.47145C3.23689 8.34642 3.16666 8.17685 3.16666 8.00004C3.16666 7.82323 3.23689 7.65366 3.36192 7.52864L7.36192 3.52864C7.62227 3.26829 8.04438 3.26829 8.30473 3.52864Z" fill="var(--primary-text-color)"/>
</g>
</svg>
