<svg width="17" height="16" viewBox="0 0 17 16" fill="none" xmlns="http://www.w3.org/2000/svg">
<path d="M3.16666 2.66668C3.16666 1.9303 3.76361 1.33334 4.49999 1.33334H12.5C13.2364 1.33334 13.8333 1.9303 13.8333 2.66668V14C13.8333 14.2497 13.6938 14.4785 13.4717 14.5928C13.2497 14.7071 12.9824 14.6876 12.7792 14.5425L8.49999 11.4859L4.22082 14.5425C4.01761 14.6876 3.75032 14.7071 3.52827 14.5928C3.30622 14.4785 3.16666 14.2497 3.16666 14V2.66668ZM12.5 2.66668L4.49999 2.66668V12.7046L8.1125 10.1242C8.3443 9.95862 8.65568 9.95862 8.88748 10.1242L12.5 12.7046V2.66668Z" fill="#2ECC71"/>
</svg>
