<svg width="17" height="16" viewBox="0 0 17 16" fill="none" xmlns="http://www.w3.org/2000/svg">
<path d="M8.50004 2.66665C5.55451 2.66665 3.16668 5.05448 3.16668 8.00001C3.16668 10.9455 5.55451 13.3334 8.50004 13.3334C11.4456 13.3334 13.8334 10.9455 13.8334 8.00001C13.8334 5.05448 11.4456 2.66665 8.50004 2.66665ZM1.83334 8.00001C1.83334 4.31809 4.81812 1.33331 8.50004 1.33331C12.1819 1.33331 15.1667 4.31809 15.1667 8.00001C15.1667 11.6819 12.1819 14.6667 8.50004 14.6667C4.81812 14.6667 1.83334 11.6819 1.83334 8.00001Z" fill="#3498DB"/>
<path d="M8.50004 6.66667C8.86823 6.66667 9.16671 6.96514 9.16671 7.33334V11.3334C9.16671 11.7015 8.86823 12 8.50004 12C8.13184 12 7.83337 11.7015 7.83337 11.3334V7.33334C7.83337 6.96514 8.13184 6.66667 8.50004 6.66667Z" fill="#3498DB"/>
<path d="M9.50004 4.99999C9.50004 5.55228 9.05232 6 8.50004 6C7.94775 6 7.50003 5.55228 7.50003 4.99999C7.50003 4.44771 7.94775 3.99999 8.50004 3.99999C9.05232 3.99999 9.50004 4.44771 9.50004 4.99999Z" fill="#3498DB"/>
</svg>
