<svg width="16" height="16" viewBox="0 0 16 16" fill="none" xmlns="http://www.w3.org/2000/svg">
<g id="close">
<path id="Icon" d="M3.52861 3.52864C3.78896 3.26829 4.21107 3.26829 4.47141 3.52864L8.00001 7.05723L11.5286 3.52864C11.789 3.26829 12.2111 3.26829 12.4714 3.52864C12.7318 3.78899 12.7318 4.2111 12.4714 4.47145L8.94282 8.00004L12.4714 11.5286C12.7318 11.789 12.7318 12.2111 12.4714 12.4714C12.2111 12.7318 11.789 12.7318 11.5286 12.4714L8.00001 8.94285L4.47141 12.4714C4.21107 12.7318 3.78896 12.7318 3.52861 12.4714C3.26826 12.2111 3.26826 11.789 3.52861 11.5286L7.0572 8.00004L3.52861 4.47145C3.26826 4.2111 3.26826 3.78899 3.52861 3.52864Z" fill="white"/>
</g>
</svg>
