<svg
  width="20"
  height="20"
  viewBox="0 0 20 20"
  fill="none"
  xmlns="http://www.w3.org/2000/svg"
>
  <path d="M7.88745 2.63424C8.13155 2.87834 8.19154 3.25148 8.03626 3.55979C7.63137 4.36367 7.403 5.2722 7.403 6.23637C7.403 9.52765 10.0711 12.1958 13.3624 12.1958C14.3266 12.1958 15.2351 11.9674 16.039 11.5625C16.3473 11.4072 16.7204 11.4672 16.9645 11.7113C17.2086 11.9554 17.2686 12.3285 17.1133 12.6369C15.8705 15.1044 13.3131 16.7999 10.3582 16.7999C6.18328 16.7999 2.79883 13.4155 2.79883 9.24054C2.79883 6.28567 4.49435 3.72823 6.9619 2.48543C7.27021 2.33015 7.64335 2.39014 7.88745 2.63424ZM5.85619 5.3356C4.94793 6.38185 4.39883 7.74737 4.39883 9.24054C4.39883 12.5318 7.06694 15.1999 10.3582 15.1999C11.8514 15.1999 13.2169 14.6508 14.2632 13.7426C13.9677 13.7777 13.6671 13.7958 13.3624 13.7958C9.18745 13.7958 5.803 10.4113 5.803 6.23637C5.803 5.93169 5.82106 5.63108 5.85619 5.3356Z" fill="#686868" />
</svg>

