<svg viewBox="0 0 117 26">
  <path
    fill="currentColor"
    d="M1.412 17.375h9.666v3.048H1.412ZM14.39 6.707h11.046v3.048H14.39Zm-5.799.94L16.792.103l2.343 2.156-8.2 7.543Z"
  />
  <path
    fill="currentColor"
    d="M8.642 15.267 2.343 9.473 0 11.628l6.298 5.794Zm8.285 4.263-6.639 6.107-2.344-2.155 6.64-6.107Zm-.051-7.619 7.42 6.825 2.343-2.156-7.42-6.825Zm-8.285-7.49v7.366H5.277V4.421Z"
  />
  <path
    fill="currentColor"
    d="M20.19 15.089v9.144h-3.313v-9.144ZM34.859 20.956h3.982c2.252.032 3.945-.084 5.149-.56q1.832-.738 2.579-2.454.774-1.715.774-4.955c0-2.001-.215-3.661-.645-4.789q-.645-1.69-2.192-2.501-1.522-.834-4.334-1.096a27 27 0 0 0-2.501-.119c-.809-.016-1.768 0-2.812 0Zm7.867-2.847q-.929.548-2.579.643-.49.048-1.058.024-.684-.031-1.367-.071V6.865q1.084 0 2.373.119 1.728.191 2.657.763.928.571 1.316 1.762.386 1.167.386 3.288 0 2.24-.412 3.502-.387 1.238-1.316 1.81m7.087 2.644q.98.334 2.76.334 1.573 0 2.399-.357.825-.382 1.521-1.382h.207v1.62h2.527v-8.433q0-1.74-.49-2.668-.49-.953-1.676-1.334-1.16-.405-3.302-.405-2.115 0-3.276.357-1.134.333-1.599 1.167c-.309.54-.517 1.32-.517 2.335h2.864q0-1 .516-1.358.542-.357 2.012-.358 1.11 0 1.728.215.62.214.877.691.258.476.258 1.358v.333H54.43q-2.502 0-3.869.405-1.367.382-1.935 1.358-.567.953-.567 2.692 0 1.477.387 2.287.413.81 1.367 1.143m5.391-2.215q-.723.357-2.09.357-1.34 0-1.831-.381-.49-.38-.49-1.405 0-.834.284-1.263.283-.453.928-.643.672-.19 1.883-.215l2.708-.024q-.051 1.55-.36 2.383-.31.834-1.032 1.191m27.199 1.977q1.316.572 3.74.572 2.398 0 3.714-.572 1.315-.596 1.857-1.953.568-1.383.568-3.931 0-2.572-.568-3.955-.542-1.382-1.857-1.953-1.29-.595-3.714-.595t-3.74.595q-1.315.572-1.857 1.953-.542 1.383-.542 3.955 0 2.548.542 3.931.541 1.381 1.857 1.953m5.778-2.001q-.697.381-2.038.381t-2.063-.381-1.032-1.286-.31-2.597q0-1.715.31-2.62.309-.93 1.032-1.311.722-.405 2.063-.405 1.34 0 2.038.405.722.382 1.031 1.311.31.905.31 2.62 0 1.691-.31 2.597t-1.031 1.286M93.228 8.245h2.76V10.2h.207q.645-1.215 1.444-1.644.826-.429 2.373-.428 1.858 0 2.863.452 1.006.429 1.445 1.453.438 1.025.438 2.93v8.005h-2.76v-8.052q0-.977-.232-1.525a1.35 1.35 0 0 0-.799-.762q-.568-.215-1.625-.215-1.316 0-2.038.358-.697.357-1.006 1.215-.31.857-.31 2.429v6.552h-2.76zM107.585 20.753q.981.334 2.76.334 1.574 0 2.399-.357.826-.382 1.522-1.382h.206v1.62H117v-8.433q0-1.74-.49-2.668-.49-.953-1.677-1.334-1.16-.405-3.301-.405-2.115 0-3.276.357-1.136.333-1.599 1.167c-.31.54-.459 1.224-.459 2.335h2.806q0-1 .516-1.358.542-.357 2.012-.358 1.109 0 1.728.215.62.214.877.691.258.476.258 1.358v.333h-2.193q-2.501 0-3.869.405-1.367.382-1.934 1.358-.568.953-.568 2.692 0 1.477.387 2.287.413.81 1.367 1.143m5.391-2.215q-.722.357-2.089.357-1.341 0-1.831-.381-.49-.38-.49-1.405 0-.834.283-1.263.284-.453.929-.643.67-.19 1.883-.215l2.708-.024q-.052 1.55-.361 2.383-.309.834-1.032 1.191M71.238 8.219h-2.657l-2.609 10.464h-.949L62.518 8.219h-2.61l2.117 9.904c.347 1.625 1.887 2.797 3.676 2.797l-.564 1.628c-.271.647-.377 1.319-1.745 1.319h-1.709v2.064l3.167.03c.955-.015 2.156-.654 3.048-3.413Zm3.901 12.35q.912.431 2.683.431h1.585v-2.18h-.726q-1.041 0-1.563-.216-.52-.215-.703-.622-.156-.432-.156-1.222v-6.42h3.148V8.231h-3.148V5.548h-2.527v2.683h-1.247l-.469 2.109h1.612v6.516q0 1.533.313 2.419.313.862 1.198 1.294"
  />
</svg>
