<svg width="20" height="21" viewBox="0 0 20 21" fill="none" xmlns="http://www.w3.org/2000/svg">
  <path d="M2.39917 4.90078C2.39917 4.01713 3.11551 3.30078 3.99917 3.30078H16.7992C17.6828 3.30078 18.3992 4.01713 18.3992 4.90078V13.7008C18.3992 14.5844 17.6828 15.3008 16.7992 15.3008H11.1992V16.9008H13.5992C14.041 16.9008 14.3992 17.259 14.3992 17.7008C14.3992 18.1426 14.041 18.5008 13.5992 18.5008H7.19917C6.75734 18.5008 6.39917 18.1426 6.39917 17.7008C6.39917 17.259 6.75734 16.9008 7.19917 16.9008H9.59917V15.3008H3.99917C3.11552 15.3008 2.39917 14.5844 2.39917 13.7008V4.90078ZM16.7992 13.7008V4.90078H3.99917V13.7008H16.7992Z" fill="#686868"/>
</svg>
