<svg width="17" height="17" viewBox="0 0 17 17" fill="none" xmlns="http://www.w3.org/2000/svg">
<path d="M11.3619 2.02876C11.6223 1.76841 12.0444 1.76841 12.3047 2.02876L14.9714 4.69543C15.2318 4.95577 15.2318 5.37788 14.9714 5.63823L6.30474 14.3049C6.17971 14.4299 6.01014 14.5002 5.83333 14.5002H3.16667C2.79848 14.5002 2.5 14.2017 2.5 13.8335V11.1668C2.5 10.99 2.57024 10.8204 2.69526 10.6954L9.36179 4.0289L11.3619 2.02876ZM9.83333 5.44297L3.83333 11.443V13.1668H5.55719L11.5572 7.16683L9.83333 5.44297ZM12.5 6.22402L13.5572 5.16683L11.8333 3.44297L10.7761 4.50016L12.5 6.22402Z" fill="#121212"/>
</svg>
