<svg width="20" height="21" viewBox="0 0 20 21" fill="none" xmlns="http://www.w3.org/2000/svg">
<path d="M10.1991 2.50098C10.6409 2.50098 10.9991 2.85915 10.9991 3.30098V4.10098C10.9991 4.5428 10.6409 4.90098 10.1991 4.90098C9.75727 4.90098 9.3991 4.5428 9.3991 4.10098V3.30098C9.3991 2.85915 9.75727 2.50098 10.1991 2.50098ZM15.856 4.84412C16.1684 5.15654 16.1684 5.66307 15.856 5.97549L15.2903 6.54117C14.9779 6.85359 14.4714 6.85359 14.1589 6.54117C13.8465 6.22875 13.8465 5.72222 14.1589 5.4098L14.7246 4.84412C15.037 4.5317 15.5436 4.5317 15.856 4.84412ZM4.54224 4.84412C4.85466 4.5317 5.36119 4.5317 5.67361 4.84412L6.23929 5.4098C6.55171 5.72222 6.55171 6.22875 6.23929 6.54117C5.92687 6.85359 5.42034 6.85359 5.10792 6.54117L4.54224 5.97549C4.22982 5.66307 4.22982 5.15654 4.54224 4.84412ZM10.1991 7.30098C8.43179 7.30098 6.9991 8.73367 6.9991 10.501C6.9991 12.2683 8.43179 13.701 10.1991 13.701C11.9664 13.701 13.3991 12.2683 13.3991 10.501C13.3991 8.73367 11.9664 7.30098 10.1991 7.30098ZM5.3991 10.501C5.3991 7.85001 7.54813 5.70098 10.1991 5.70098C12.8501 5.70098 14.9991 7.85001 14.9991 10.501C14.9991 13.1519 12.8501 15.301 10.1991 15.301C7.54813 15.301 5.3991 13.1519 5.3991 10.501ZM2.1991 10.501C2.1991 10.0591 2.55727 9.70098 2.9991 9.70098H3.7991C4.24092 9.70098 4.5991 10.0591 4.5991 10.501C4.5991 10.9428 4.24092 11.301 3.7991 11.301H2.9991C2.55727 11.301 2.1991 10.9428 2.1991 10.501ZM15.7991 10.501C15.7991 10.0591 16.1573 9.70098 16.5991 9.70098H17.3991C17.8409 9.70098 18.1991 10.0591 18.1991 10.501C18.1991 10.9428 17.8409 11.301 17.3991 11.301H16.5991C16.1573 11.301 15.7991 10.9428 15.7991 10.501ZM5.10792 14.4608C5.42034 14.1483 5.92687 14.1483 6.23929 14.4608C6.55171 14.7732 6.55171 15.2797 6.23929 15.5921L5.67361 16.1578C5.36119 16.4702 4.85466 16.4702 4.54224 16.1578C4.22982 15.8454 4.22982 15.3389 4.54224 15.0265L5.10792 14.4608ZM14.1589 15.5921C13.8465 15.2797 13.8465 14.7732 14.1589 14.4608C14.4714 14.1483 14.9779 14.1483 15.2903 14.4608L15.856 15.0265C16.1684 15.3389 16.1684 15.8454 15.856 16.1578C15.5436 16.4702 15.037 16.4702 14.7246 16.1578L14.1589 15.5921ZM10.1991 16.101C10.6409 16.101 10.9991 16.4591 10.9991 16.901V17.701C10.9991 18.1428 10.6409 18.501 10.1991 18.501C9.75727 18.501 9.3991 18.1428 9.3991 17.701V16.901C9.3991 16.4591 9.75727 16.101 10.1991 16.101Z" fill="#686868"/>
</svg>
