<svg width="16" height="16" viewBox="0 0 16 16" fill="none" xmlns="http://www.w3.org/2000/svg">
<g id="menu">
<path id="Icon" d="M2.87964 4.79991C2.87964 4.44645 3.16618 4.15991 3.51964 4.15991H12.4796C12.8331 4.15991 13.1196 4.44645 13.1196 4.79991C13.1196 5.15337 12.8331 5.43991 12.4796 5.43991H3.51964C3.16618 5.43991 2.87964 5.15337 2.87964 4.79991ZM2.87964 7.99991C2.87964 7.64645 3.16618 7.35991 3.51964 7.35991H12.4796C12.8331 7.35991 13.1196 7.64645 13.1196 7.99991C13.1196 8.35337 12.8331 8.63991 12.4796 8.63991H3.51964C3.16618 8.63991 2.87964 8.35337 2.87964 7.99991ZM2.87964 11.1999C2.87964 10.8464 3.16618 10.5599 3.51964 10.5599H12.4796C12.8331 10.5599 13.1196 10.8464 13.1196 11.1999C13.1196 11.5534 12.8331 11.8399 12.4796 11.8399H3.51964C3.16618 11.8399 2.87964 11.5534 2.87964 11.1999Z" fill="white"/>
</g>
</svg>
