<svg width="17" height="16" viewBox="0 0 17 16" fill="none" xmlns="http://www.w3.org/2000/svg">
<path d="M8.49999 9.33334C8.1318 9.33334 7.83332 9.03486 7.83332 8.66667V6.66667C7.83332 6.29848 8.1318 6 8.49999 6C8.86818 6 9.16666 6.29848 9.16666 6.66667V8.66667C9.16666 9.03486 8.86818 9.33334 8.49999 9.33334Z" fill="#E74C3C"/>
<path d="M7.49999 11C7.49999 10.4477 7.94771 10 8.49999 10C9.05228 10 9.49999 10.4477 9.49999 11C9.49999 11.5523 9.05228 12 8.49999 12C7.94771 12 7.49999 11.5523 7.49999 11Z" fill="#E74C3C"/>
<path d="M7.3201 2.14374C7.81998 1.19395 9.17999 1.19395 9.67988 2.14373L15.2423 12.7123C15.7096 13.6002 15.0658 14.6667 14.0624 14.6667H2.93757C1.93422 14.6667 1.29037 13.6002 1.75768 12.7123L7.3201 2.14374ZM14.0624 13.3333L8.49999 2.76473L2.93757 13.3333L14.0624 13.3333Z" fill="#E74C3C"/>
</svg>
