<svg width="414" height="84" viewBox="0 0 414 84" fill="none" xmlns="http://www.w3.org/2000/svg">
<path d="M26.1078 24.816L51.0317 0L58.1529 7.09028L33.2289 31.9063L26.1078 24.816Z" fill="#121212"/>
<path d="M26.1078 24.816V38.4376L16.037 38.4376L16.037 14.2053H26.1078V24.816Z" fill="#121212"/>
<path fill-rule="evenodd" clip-rule="evenodd" d="M113.042 70.803C108.922 70.803 103.997 70.5456 98.2672 70.0307V4.37956C102.259 4.05774 105.767 3.92901 108.793 3.99338C111.819 3.99338 114.941 4.15428 118.16 4.4761C125.177 5.1841 130.585 6.66447 134.384 8.91721C138.246 11.1056 140.982 14.4847 142.592 19.0545C144.201 23.6243 145.006 29.9642 145.006 38.074C145.006 46.8275 144.04 53.5213 142.109 58.1555C140.242 62.7897 137.023 66.1045 132.452 68.0998C127.946 70.0307 121.476 70.9318 113.042 70.803ZM118.064 61.4381C122.184 61.1806 125.403 60.3117 127.72 58.8314C130.038 57.2866 131.68 54.8408 132.645 51.4939C133.675 48.0826 134.19 43.3519 134.19 37.3017C134.19 31.5733 133.708 27.1322 132.742 23.9783C131.776 20.7602 130.135 18.3787 127.817 16.834C125.499 15.2892 122.184 14.2594 117.87 13.7445C114.652 13.4227 111.69 13.2618 108.986 13.2618V61.245C111.046 61.3737 112.752 61.4703 114.104 61.5346C115.521 61.599 116.84 61.5668 118.064 61.4381Z" fill="#121212"/>
<path fill-rule="evenodd" clip-rule="evenodd" d="M163.413 70.8996C158.971 70.8996 155.526 70.449 153.08 69.5479C150.698 68.6469 148.992 67.1021 147.962 64.9137C146.996 62.7254 146.513 59.6359 146.513 55.6454C146.513 50.9468 147.222 47.3102 148.638 44.7357C150.054 42.0968 152.468 40.2624 155.88 39.2326C159.293 38.1384 164.121 37.5913 170.366 37.5913H178.574V36.2397C178.574 33.8582 178.252 32.0238 177.608 30.7365C176.964 29.4493 175.87 28.516 174.325 27.9367C172.78 27.3574 170.623 27.0678 167.855 27.0678C164.185 27.0678 161.675 27.5505 160.323 28.516C159.035 29.4815 158.391 31.3158 158.391 34.0191H148.058C147.93 29.8998 148.445 26.746 149.604 24.5576C150.762 22.3049 152.758 20.728 155.591 19.8269C158.488 18.8614 162.576 18.3787 167.855 18.3787C173.198 18.3787 177.318 18.9258 180.216 20.02C183.177 21.0498 185.269 22.852 186.492 25.4265C187.716 27.9367 188.327 31.5411 188.327 36.2397V70.0307H178.864V63.8517H178.091C176.353 66.555 174.454 68.4216 172.394 69.4514C170.333 70.4169 167.34 70.8996 163.413 70.8996ZM165.441 62.0174C168.853 62.0174 171.46 61.5346 173.263 60.5692C175.065 59.6037 176.353 57.9946 177.125 55.7419C177.898 53.4892 178.349 50.271 178.477 46.0873L168.338 46.1839C165.312 46.2482 162.962 46.5379 161.288 47.0528C159.679 47.5677 158.52 48.4366 157.812 49.6595C157.104 50.8181 156.75 52.5237 156.75 54.7764C156.75 57.5441 157.361 59.4428 158.584 60.4726C159.808 61.5025 162.093 62.0174 165.441 62.0174Z" fill="#121212"/>
<path d="M263.521 71.0927C259.079 71.0927 255.731 70.5134 253.478 69.3548C251.225 68.1963 249.712 66.4585 248.939 64.1414C248.167 61.7599 247.78 58.4774 247.78 54.2937V28.1137H239.095L242.233 20.02H247.78V9.34094H257.437V20.02H269.943V28.1137H257.437L257.824 53.9075C257.824 56.0315 258.017 57.6406 258.403 58.7348C258.854 59.829 259.69 60.6657 260.914 61.245C262.201 61.7599 264.133 62.0174 266.708 62.0174C268.017 62.0174 268.283 61.9303 268.817 61.7561C269.358 61.5791 270.175 61.3122 272.641 60.9554V69.9341C269.856 70.2751 268.405 70.5408 267.365 70.7312C266.049 70.9722 265.391 71.0927 263.521 71.0927Z" fill="#121212"/>
<path fill-rule="evenodd" clip-rule="evenodd" d="M299.256 70.8996C293.205 70.8996 288.537 70.1272 285.254 68.5825C281.971 67.0378 279.653 64.3988 278.301 60.6657C276.949 56.9326 276.273 51.6226 276.273 44.7357C276.273 37.7844 276.949 32.4422 278.301 28.7091C279.653 24.976 281.971 22.3371 285.254 20.7923C288.537 19.1832 293.205 18.3787 299.256 18.3787C305.308 18.3787 309.943 19.1832 313.162 20.7923C316.445 22.3371 318.763 24.976 320.115 28.7091C321.531 32.4422 322.239 37.7844 322.239 44.7357C322.239 51.6226 321.531 56.9326 320.115 60.6657C318.763 64.3345 316.445 66.9734 313.162 68.5825C309.879 70.1272 305.244 70.8996 299.256 70.8996ZM299.256 62.0174C302.604 62.0174 305.147 61.5025 306.885 60.4726C308.688 59.4428 309.975 57.705 310.748 55.2592C311.52 52.8133 311.907 49.3055 311.907 44.7357C311.907 40.1015 311.52 36.5615 310.748 34.1157C309.975 31.6055 308.688 29.8355 306.885 28.8056C305.147 27.7115 302.604 27.1644 299.256 27.1644C295.909 27.1644 293.333 27.7115 291.531 28.8056C289.728 29.8355 288.441 31.6055 287.668 34.1157C286.896 36.5615 286.509 40.1015 286.509 44.7357C286.509 49.3055 286.896 52.8133 287.668 55.2592C288.441 57.705 289.728 59.4428 291.531 60.4726C293.333 61.5025 295.909 62.0174 299.256 62.0174Z" fill="#121212"/>
<path d="M325.002 19.6338H335.335V26.7782H336.107C337.717 23.4956 339.52 21.2751 341.515 20.1165C343.575 18.958 346.537 18.3787 350.4 18.3787C355.035 18.3787 358.608 18.9901 361.119 20.2131C363.629 21.3716 365.432 23.3347 366.526 26.1024C367.621 28.87 368.168 32.8284 368.168 37.9775V70.0307H357.835V37.7844C357.835 35.1455 357.546 33.0858 356.966 31.6055C356.387 30.1251 355.389 29.0953 353.973 28.516C352.556 27.9367 350.528 27.6471 347.889 27.6471C344.605 27.6471 342.062 28.1298 340.26 29.0953C338.522 30.0607 337.266 31.702 336.494 34.0191C335.721 36.3362 335.335 39.6188 335.335 43.8668V70.0307H325.002V19.6338Z" fill="#121212"/>
<path fill-rule="evenodd" clip-rule="evenodd" d="M389.086 70.8996C384.643 70.8996 381.199 70.449 378.753 69.5479C376.371 68.6469 374.665 67.1021 373.635 64.9137C372.669 62.7254 372.186 59.6359 372.186 55.6454C372.186 50.9468 372.894 47.3102 374.311 44.7357C375.727 42.0968 378.141 40.2624 381.553 39.2326C384.965 38.1384 389.794 37.5913 396.038 37.5913H404.247V36.2397C404.247 33.8582 403.925 32.0238 403.281 30.7365C402.637 29.4493 401.543 28.516 399.998 27.9367C398.453 27.3574 396.296 27.0678 393.528 27.0678C389.858 27.0678 387.347 27.5505 385.995 28.516C384.708 29.4815 384.064 31.3158 384.064 34.0191H373.731C373.602 29.8998 374.118 26.746 375.276 24.5576C376.435 22.3049 378.431 20.728 381.264 19.8269C384.161 18.8614 388.249 18.3787 393.528 18.3787C398.871 18.3787 402.991 18.9258 405.888 20.02C408.85 21.0498 410.942 22.852 412.165 25.4265C413.388 27.9367 414 31.5411 414 36.2397V70.0307H404.536V63.8517H403.764C402.026 66.555 400.126 68.4216 398.066 69.4514C396.006 70.4169 393.013 70.8996 389.086 70.8996ZM391.113 62.0174C394.525 62.0174 397.133 61.5346 398.935 60.5692C400.738 59.6037 402.026 57.9946 402.798 55.7419C403.571 53.4892 404.021 50.271 404.15 46.0873L394.01 46.1839C390.985 46.2482 388.635 46.5379 386.961 47.0528C385.352 47.5677 384.193 48.4366 383.485 49.6595C382.776 50.8181 382.422 52.5237 382.422 54.7764C382.422 57.5441 383.034 59.4428 384.257 60.4726C385.48 61.5025 387.766 62.0174 391.113 62.0174Z" fill="#121212"/>
<path d="M210.485 57.8898L206.725 57.8897L189.47 20.0682L198.679 20.0683L213.432 52.2502L228.186 20.0683H238.06L211.01 79.0685H200.482L210.485 57.8898Z" fill="#121212"/>
<path d="M19.2957 56.8204H33.6629V66.8476H4.28977V56.8204H18.9871L0 37.9156L7.12113 30.8253L26.2626 49.8838L19.2957 56.8204Z" fill="#121212"/>
<path d="M77.302 21.7255H43.7327V31.7527H77.302V21.7255Z" fill="#121212"/>
<path d="M51.2855 64.0644L31.2632 84L24.1421 76.9097L44.3186 56.8206L51.2855 63.7573V49.3002H61.3563V79.3817H51.2855V64.0644Z" fill="#121212"/>
<path d="M73.8365 61.2956L51.2862 38.8431L58.4073 31.7528L80.9576 54.2053L73.8365 61.2956Z" fill="#121212"/>
</svg>
