<svg width="16" height="16" viewBox="0 0 16 16" fill="none" xmlns="http://www.w3.org/2000/svg">
<g id="Icon">
<path d="M11.182 2.5C11.0607 1.68333 10.6607 1.03333 10.0607 0.65C9.46067 0.266667 8.77734 0.0833333 8.014 0.1C7.914 0.683333 8.01067 1.25 8.31067 1.8C8.61067 2.35 9.11067 2.78333 9.81067 3.08333C10.1107 2.55 11.1607 2.51667 11.182 2.5Z" fill="white"/>
<path d="M13.5 11.5C13.1667 12.3333 12.7333 13.0833 12.2 13.75C11.6667 14.4167 11.0667 15.0833 10.4 15.75C9.73333 16.4167 9.03333 16.4167 8.3 15.75C7.56667 15.0833 6.8 14.4167 6 13.75C5.2 13.0833 4.5 12.3333 3.9 11.5C3.3 10.6667 2.83333 9.75 2.5 8.75C2.16667 7.75 2 6.75 2 5.75C2 4.41667 2.41667 3.25 3.25 2.25C4.08333 1.25 5.16667 0.75 6.5 0.75C7.16667 0.75 7.75 0.916667 8.25 1.25C8.75 1.58333 9.16667 2 9.5 2.5C9.83333 2 10.25 1.58333 10.75 1.25C11.25 0.916667 11.8333 0.75 12.5 0.75C13.8333 0.75 14.9167 1.25 15.75 2.25C16.5833 3.25 17 4.41667 17 5.75C17 6.75 16.8333 7.75 16.5 8.75C16.1667 9.75 15.7 10.6667 15.1 11.5H13.5Z" fill="white"/>
</g>
</svg>
