<svg width="800" height="800" viewBox="0 0 800 800" fill="none" xmlns="http://www.w3.org/2000/svg">
<path d="M700 550H675V475C675 461.739 669.732 449.021 660.355 439.645C650.979 430.268 638.261 425 625 425H425V350H500C513.261 350 525.979 344.732 535.355 335.355C544.732 325.979 550 313.261 550 300V100C550 86.7392 544.732 74.0215 535.355 64.6447C525.979 55.2678 513.261 50 500 50H300C286.739 50 274.021 55.2678 264.645 64.6447C255.268 74.0215 250 86.7392 250 100V300C250 313.261 255.268 325.979 264.645 335.355C274.021 344.732 286.739 350 300 350H375V425H175C161.739 425 149.021 430.268 139.645 439.645C130.268 449.021 125 461.739 125 475V550H100C86.7392 550 74.0215 555.268 64.6447 564.645C55.2678 574.021 50 586.739 50 600V700C50 713.261 55.2678 725.979 64.6447 735.355C74.0215 744.732 86.7392 750 100 750H200C213.261 750 225.979 744.732 235.355 735.355C244.732 725.979 250 713.261 250 700V600C250 586.739 244.732 574.021 235.355 564.645C225.979 555.268 213.261 550 200 550H175V475H375V550H350C336.739 550 324.021 555.268 314.645 564.645C305.268 574.021 300 586.739 300 600V700C300 713.261 305.268 725.979 314.645 735.355C324.021 744.732 336.739 750 350 750H450C463.261 750 475.979 744.732 485.355 735.355C494.732 725.979 500 713.261 500 700V600C500 586.739 494.732 574.021 485.355 564.645C475.979 555.268 463.261 550 450 550H425V475H625V550H600C586.739 550 574.021 555.268 564.645 564.645C555.268 574.021 550 586.739 550 600V700C550 713.261 555.268 725.979 564.645 735.355C574.021 744.732 586.739 750 600 750H700C713.261 750 725.979 744.732 735.355 735.355C744.732 725.979 750 713.261 750 700V600C750 586.739 744.732 574.021 735.355 564.645C725.979 555.268 713.261 550 700 550ZM300 100H500V300H300V100ZM200 700H100V600H200V700ZM450 700H350V600H450V700ZM700 700H600V600H700V700Z" fill="black" stroke="black" stroke-width="0.008"/>
</svg>
