<svg
  width="12"
  height="12"
  viewBox="0 0 12 12"
  fill="none"
  xmlns="http://www.w3.org/2000/svg"
>
  <path
    d="M10 11V2H1C0.447715 2 0 1.55228 0 1C0 0.447715 0.447715 0 1 0H11C11.5523 0 12 0.447715 12 1V11C12 11.5523 11.5523 12 11 12C10.4477 12 10 11.5523 10 11Z"
    fill="currentColor"
  />
  <path
    d="M10.2929 0.292893C10.6834 -0.0976311 11.3164 -0.0976311 11.707 0.292893C12.0975 0.683418 12.0975 1.31643 11.707 1.70696L1.70696 11.707C1.31643 12.0975 0.683418 12.0975 0.292893 11.707C-0.0976311 11.3164 -0.0976311 10.6834 0.292893 10.2929L10.2929 0.292893Z"
    fill="currentColor"
  />
</svg>
