<svg width="16" height="16" viewBox="0 0 16 16" fill="none" xmlns="http://www.w3.org/2000/svg">
<g id="bookmark">
<path id="Icon" d="M2.66669 2.66665C2.66669 1.93027 3.26364 1.33331 4.00003 1.33331H12.0001C12.7364 1.33331 13.3334 1.93027 13.3334 2.66665V14C13.3334 14.2498 13.1938 14.4785 12.9718 14.5928C12.7497 14.7071 12.4824 14.6877 12.2792 14.5425L8.00004 11.486L3.72085 14.5425C3.51764 14.6877 3.25035 14.7071 3.0283 14.5928C2.80625 14.4785 2.66669 14.2498 2.66669 14V2.66665ZM12.0001 2.66665L4.00003 2.66665V12.7046L7.61255 10.1242C7.84435 9.95862 8.15574 9.95862 8.38753 10.1242L12.0001 12.7046V2.66665Z" fill="white"/>
</g>
</svg>
