<svg
  width="18"
  height="22"
  viewBox="0 0 18 22"
  fill="none"
  xmlns="http://www.w3.org/2000/svg"
>
  <path
    d="M3.5 2C3.10218 2 2.72076 2.15815 2.43945 2.43945C2.15815 2.72076 2 3.10218 2 3.5V15.3379C2.46445 15.1176 2.97614 15 3.5 15H16V2H3.5ZM2 18.5C2 18.8978 2.15815 19.2792 2.43945 19.5605C2.72076 19.8419 3.10218 20 3.5 20H16V17H3.5C3.10218 17 2.72076 17.1581 2.43945 17.4395C2.15815 17.7208 2 18.1022 2 18.5ZM18 20C18 20.5304 17.7891 21.039 17.4141 21.4141C17.039 21.7891 16.5304 22 16 22H3.5C2.57174 22 1.68177 21.631 1.02539 20.9746C0.369013 20.3182 0 19.4283 0 18.5V3.5C0 2.57174 0.369013 1.68177 1.02539 1.02539C1.68177 0.369013 2.57174 0 3.5 0H16C16.5304 0 17.039 0.210864 17.4141 0.585938C17.7891 0.961012 18 1.46957 18 2V20Z"
    fill="currentColor"
  />
</svg>
