<svg width="16" height="16" viewBox="1 1 22 22" fill="none" xmlns="http://www.w3.org/2000/svg">
  <g id="chart">
    <!-- Axis -->
    <path d="M3 3V19C3 20.1046 3.89543 21 5 21H21C21.5523 21 22 20.5523 22 20C22 19.4477 21.5523 19 21 19H5V3C5 2.44772 4.55228 2 4 2C3.44772 2 3 2.44772 3 3Z" fill="white"/>
    
    <!-- Chart line (already centered from previous step) -->
    <path d="M7.29289 12.7071C6.90237 13.0976 6.90237 13.7308 7.29289 14.1213C7.68342 14.5118 8.31658 14.5118 8.70711 14.1213L11 11.8284L13.2929 14.1213C13.6834 14.5118 14.3166 14.5118 14.7071 14.1213L18.7071 10.1213C19.0976 9.73079 19.0976 9.09763 18.7071 8.70711C18.3166 8.31658 17.6834 8.31658 17.2929 8.70711L14 12L11.7071 9.70711C11.3166 9.31658 10.6834 9.31658 10.2929 9.70711L7.29289 12.7071Z" fill="white"/>
  </g>
</svg>
