<svg width="16" height="16" viewBox="0 0 16 16" fill="none" xmlns="http://www.w3.org/2000/svg">
<g id="clipboard-list">
<g id="Icon">
<path d="M6.00009 7.66667C6.36829 7.66667 6.66676 7.36819 6.66676 7C6.66676 6.63181 6.36829 6.33333 6.00009 6.33333C5.6319 6.33333 5.33343 6.63181 5.33343 7C5.33343 7.36819 5.6319 7.66667 6.00009 7.66667Z" fill="white"/>
<path d="M7.33343 7C7.33343 6.63181 7.63191 6.33333 8.0001 6.33333H10.0001C10.3683 6.33333 10.6668 6.63181 10.6668 7C10.6668 7.36819 10.3683 7.66667 10.0001 7.66667H8.0001C7.63191 7.66667 7.33343 7.36819 7.33343 7Z" fill="white"/>
<path d="M8.0001 8.33334C7.63191 8.33334 7.33343 8.63182 7.33343 9.00001C7.33343 9.3682 7.63191 9.66668 8.0001 9.66668H10.0001C10.3683 9.66668 10.6668 9.3682 10.6668 9.00001C10.6668 8.63182 10.3683 8.33334 10.0001 8.33334H8.0001Z" fill="white"/>
<path d="M8.0001 10.3333C7.63191 10.3333 7.33343 10.6318 7.33343 11C7.33343 11.3682 7.63191 11.6667 8.0001 11.6667H10.0001C10.3683 11.6667 10.6668 11.3682 10.6668 11C10.6668 10.6318 10.3683 10.3333 10.0001 10.3333H8.0001Z" fill="white"/>
<path d="M6.66676 9.00001C6.66676 9.3682 6.36829 9.66668 6.00009 9.66668C5.6319 9.66668 5.33343 9.3682 5.33343 9.00001C5.33343 8.63182 5.6319 8.33334 6.00009 8.33334C6.36829 8.33334 6.66676 8.63182 6.66676 9.00001Z" fill="white"/>
<path d="M6.00009 11.6667C6.36829 11.6667 6.66676 11.3682 6.66676 11C6.66676 10.6318 6.36829 10.3333 6.00009 10.3333C5.6319 10.3333 5.33343 10.6318 5.33343 11C5.33343 11.3682 5.6319 11.6667 6.00009 11.6667Z" fill="white"/>
<path d="M6.00009 1.33331C5.6319 1.33331 5.33343 1.63179 5.33343 1.99998H4.00009C3.2637 1.99998 2.66675 2.59694 2.66675 3.33332V13.3334C2.66675 14.0697 3.2637 14.6667 4.00009 14.6667H12.0001C12.7365 14.6667 13.3335 14.0697 13.3335 13.3334V3.33332C13.3335 2.59694 12.7365 1.99998 12.0001 1.99998H10.6668C10.6668 1.63179 10.3683 1.33331 10.0001 1.33331H6.00009ZM10.6668 3.33332H12.0001V13.3334H4.00009V3.33332H5.33343V3.99999C5.33343 4.36818 5.6319 4.66666 6.00009 4.66666H10.0001C10.3683 4.66666 10.6668 4.36818 10.6668 3.99999V3.33332ZM6.66676 3.33332V2.66665H9.33344V3.33332H6.66676Z" fill="white"/>
</g>
</g>
</svg>
