<svg width="16" height="16" viewBox="0 0 16 16" fill="none" xmlns="http://www.w3.org/2000/svg">
<g clip-path="url(#clip0_3963_309)">
<path fill-rule="evenodd" clip-rule="evenodd" d="M10 2C10 2.87084 9.44342 3.61169 8.66658 3.88622V4.73333C9.29914 4.8617 9.86666 5.16919 10.3139 5.60056L11.3603 4.99641C11.3425 4.88914 11.3333 4.779 11.3333 4.66669C11.3333 3.56212 12.2287 2.66669 13.3333 2.66669C14.4378 2.66669 15.3333 3.56212 15.3333 4.66669C15.3333 5.77126 14.4378 6.66669 13.3333 6.66669C12.8882 6.66669 12.4771 6.52133 12.1449 6.27549L11.1332 6.85957C11.2628 7.21536 11.3334 7.59944 11.3334 8.00002C11.3334 8.4416 11.2475 8.86313 11.0916 9.24882L12.0479 9.80095C12.3955 9.50909 12.8439 9.33331 13.3333 9.33331C14.4378 9.33331 15.3333 10.2287 15.3333 11.3333C15.3333 12.4379 14.4378 13.3333 13.3333 13.3333C12.2287 13.3333 11.3333 12.4379 11.3333 11.3333C11.3333 11.2635 11.3368 11.1945 11.3438 11.1265L10.2261 10.4812C9.79338 10.8697 9.25845 11.1466 8.66658 11.2667V12.1138C9.44342 12.3883 10 13.1292 10 14C10 15.1046 9.10457 16 8 16C6.89543 16 6 15.1046 6 14C6 13.1292 6.5565 12.3884 7.33325 12.1138V11.2666C6.73954 11.1461 6.20313 10.8677 5.76972 10.4773L4.6397 11.1297C4.65749 11.237 4.66675 11.3471 4.66675 11.4594C4.66675 12.564 3.77132 13.4594 2.66675 13.4594C1.56218 13.4594 0.666748 12.564 0.666748 11.4594C0.666748 10.3548 1.56218 9.45941 2.66675 9.45941C3.11179 9.45941 3.52288 9.60477 3.85513 9.85061L4.90646 9.24362C4.75184 8.85935 4.66675 8.43962 4.66675 8.00002C4.66675 7.59751 4.73809 7.21166 4.86882 6.85443L3.95203 6.32512C3.60444 6.61696 3.15612 6.79272 2.66675 6.79272C1.56218 6.79273 0.666748 5.89729 0.666748 4.79273C0.666748 3.68816 1.56218 2.79272 2.66675 2.79272C3.77132 2.79272 4.66675 3.68816 4.66675 4.79272C4.66675 4.86258 4.66317 4.9316 4.65618 4.99961L5.69031 5.59667C6.13684 5.16742 6.70273 4.86142 7.33325 4.7334V3.88617C6.5565 3.61159 6 2.87078 6 2C6 0.895431 6.89543 0 8 0C9.10457 0 10 0.895431 10 2ZM8 2.66667C8.36819 2.66667 8.66667 2.36819 8.66667 2C8.66667 1.63181 8.36819 1.33333 8 1.33333C7.63181 1.33333 7.33333 1.63181 7.33333 2C7.33333 2.36819 7.63181 2.66667 8 2.66667ZM7.99103 10C6.89063 9.99513 6.00008 9.10157 6.00008 8.00002C6.00008 6.89545 6.89551 6.00002 8.00008 6.00002C9.10465 6.00002 10.0001 6.89545 10.0001 8.00002C10.0001 9.10157 9.10954 9.99513 8.00913 10H7.99103ZM8.66667 14C8.66667 14.3682 8.36819 14.6667 8 14.6667C7.63181 14.6667 7.33333 14.3682 7.33333 14C7.33333 13.6318 7.63181 13.3333 8 13.3333C8.36819 13.3333 8.66667 13.6318 8.66667 14ZM13.3333 12C13.7014 12 13.9999 11.7015 13.9999 11.3333C13.9999 10.9651 13.7014 10.6666 13.3333 10.6666C12.9651 10.6666 12.6666 10.9651 12.6666 11.3333C12.6666 11.7015 12.9651 12 13.3333 12ZM13.9999 4.66669C13.9999 5.03488 13.7014 5.33335 13.3333 5.33335C12.9651 5.33335 12.6666 5.03488 12.6666 4.66669C12.6666 4.2985 12.9651 4.00002 13.3333 4.00002C13.7014 4.00002 13.9999 4.2985 13.9999 4.66669ZM2.66675 4.12606C2.29856 4.12606 2.00008 4.42453 2.00008 4.79272C2.00008 5.16091 2.29856 5.45939 2.66675 5.45939C3.03494 5.45939 3.33341 5.16091 3.33341 4.79272C3.33341 4.42453 3.03494 4.12606 2.66675 4.12606ZM2.00008 11.4594C2.00008 11.0912 2.29856 10.7927 2.66675 10.7927C3.03494 10.7927 3.33341 11.0912 3.33341 11.4594C3.33341 11.8276 3.03494 12.1261 2.66675 12.1261C2.29856 12.1261 2.00008 11.8276 2.00008 11.4594Z" fill="white"/>
</g>
<defs>
<clipPath id="clip0_3963_309">
<rect width="16" height="16" fill="white"/>
</clipPath>
</defs>
</svg>
