<svg width="18" height="22" viewBox="0 0 18 22" fill="none" xmlns="http://www.w3.org/2000/svg">
<path d="M0 19V3C8.20837e-07 2.20435 0.316298 1.44151 0.878906 0.878906C1.44152 0.316298 2.20435 0 3 0H11V0.000976562C11.4479 0.000463969 11.8919 0.0873431 12.3057 0.258789C12.7193 0.430223 13.0949 0.681982 13.4111 0.999023L16.9971 4.58496L17.1133 4.70605C17.3773 4.99585 17.5896 5.32951 17.7402 5.69238C17.9122 6.1067 18.0005 6.55143 18 7V19C18 19.7956 17.6837 20.5585 17.1211 21.1211C16.5585 21.6837 15.7957 22 15 22H3C2.20435 22 1.44152 21.6837 0.878906 21.1211C0.316298 20.5585 0 19.7956 0 19ZM2 19C2 19.2652 2.10543 19.5195 2.29297 19.707C2.48051 19.8946 2.73478 20 3 20H15C15.2652 20 15.5195 19.8946 15.707 19.707C15.8946 19.5195 16 19.2652 16 19V6.99805C16.0003 6.81344 15.9642 6.6305 15.8936 6.45996C15.8227 6.28915 15.7181 6.13331 15.5869 6.00293L11.9961 2.41211C11.8658 2.28135 11.7106 2.17712 11.54 2.10645C11.3695 2.03581 11.1865 1.99974 11.002 2H3C2.73478 2 2.4805 2.10543 2.29297 2.29297C2.10543 2.4805 2 2.73478 2 3V19Z" fill="currentColor"/>
<path d="M10 6V1C10 0.447715 10.4477 0 11 0C11.5523 0 12 0.447715 12 1V6H17C17.5523 6 18 6.44772 18 7C18 7.55228 17.5523 8 17 8H12C11.4696 8 10.961 7.78913 10.5859 7.41406C10.2109 7.03899 10 6.53043 10 6Z" fill="currentColor"/>
<path d="M6.21864 10.8754C6.56365 10.4441 7.19363 10.3741 7.62489 10.7191C8.05615 11.0641 8.12615 11.6941 7.78114 12.1254L6.28114 14.0004L7.78114 15.8754C8.12615 16.3067 8.05615 16.9366 7.62489 17.2816C7.19363 17.6266 6.56365 17.5567 6.21864 17.1254L4.21864 14.6254C3.92647 14.2602 3.92647 13.7406 4.21864 13.3754L6.21864 10.8754Z" fill="currentColor"/>
<path d="M10.3749 10.7191C10.8062 10.3741 11.4361 10.4441 11.7811 10.8754L13.7811 13.3754C14.0733 13.7406 14.0733 14.2602 13.7811 14.6254L11.7811 17.1254C11.4361 17.5567 10.8062 17.6266 10.3749 17.2816C9.94364 16.9366 9.87364 16.3067 10.2186 15.8754L11.7186 14.0004L10.2186 12.1254C9.87364 11.6941 9.94364 11.0641 10.3749 10.7191Z" fill="currentColor"/>
</svg>
