<svg width="16" height="16" viewBox="0 0 16 16" fill="none" xmlns="http://www.w3.org/2000/svg">
<g id="Icon">
<g id="Icon_2">
<path fill-rule="evenodd" clip-rule="evenodd" d="M3.19998 3.00001C3.19998 2.22681 3.82678 1.60001 4.59998 1.60001H11.4C12.1732 1.60001 12.8 2.22681 12.8 3.00001V7.00001C12.8 7.7732 12.1732 8.40001 11.4 8.40001H4.59998C3.82678 8.40001 3.19998 7.7732 3.19998 7.00001V3.00001ZM4.59998 2.80001C4.48952 2.80001 4.39998 2.88955 4.39998 3.00001V7.00001C4.39998 7.11046 4.48952 7.20001 4.59998 7.20001H11.4C11.5104 7.20001 11.6 7.11046 11.6 7.00001V3.00001C11.6 2.88955 11.5104 2.80001 11.4 2.80001H4.59998Z" fill="white"/>
<path fill-rule="evenodd" clip-rule="evenodd" d="M1.59998 10.6C1.59998 9.82681 2.22678 9.20001 2.99998 9.20001H13C13.7732 9.20001 14.4 9.82681 14.4 10.6V13C14.4 13.7732 13.7732 14.4 13 14.4H2.99998C2.22678 14.4 1.59998 13.7732 1.59998 13V10.6ZM2.99998 10.4C2.88952 10.4 2.79998 10.4895 2.79998 10.6V13C2.79998 13.1105 2.88952 13.2 2.99998 13.2H13C13.1104 13.2 13.2 13.1105 13.2 13V10.6C13.2 10.4895 13.1104 10.4 13 10.4H2.99998Z" fill="white"/>
<path fill-rule="evenodd" clip-rule="evenodd" d="M3.99998 11.8C3.99998 11.4686 4.2686 11.2 4.59998 11.2H4.99998C5.33135 11.2 5.59998 11.4686 5.59998 11.8C5.59998 12.1314 5.33135 12.4 4.99998 12.4H4.59998C4.2686 12.4 3.99998 12.1314 3.99998 11.8ZM7.19998 11.8C7.19998 11.4686 7.4686 11.2 7.79998 11.2H11.4C11.7313 11.2 12 11.4686 12 11.8C12 12.1314 11.7313 12.4 11.4 12.4H7.79998C7.4686 12.4 7.19998 12.1314 7.19998 11.8Z" fill="white"/>
</g>
</g>
</svg>
