<?xml version="1.0" ?><svg height="32" id="icon" viewBox="0 0 32 32" width="32" xmlns="http://www.w3.org/2000/svg"><defs><style>
      .cls-1 {
        fill: none;
      }
    </style></defs><path d="M17,13V6H8V22H24V13ZM10,8h5v5H10Zm0,7h5v5H10Zm12,5H17V15h5Z" transform="translate(0 0)"/><path d="M28,11H19V2h9ZM21,9h5V4H21Z" transform="translate(0 0)"/><path d="M28,20H26v2h2v6H4V22H6V20H4a2.0024,2.0024,0,0,0-2,2v6a2.0024,2.0024,0,0,0,2,2H28a2.0024,2.0024,0,0,0,2-2V22A2.0024,2.0024,0,0,0,28,20Z" transform="translate(0 0)"/><circle cx="7" cy="25" r="1"/><rect class="cls-1" data-name="&lt;Transparent Rectangle&gt;" height="32" id="_Transparent_Rectangle_" width="32"/></svg>