<svg width="16" height="16" viewBox="0 0 16 16" fill="none" xmlns="http://www.w3.org/2000/svg">
<g id="copy">
<path id="Icon" d="M1.33331 2.66665C1.33331 1.93027 1.93027 1.33331 2.66665 1.33331H9.33331C10.0697 1.33331 10.6666 1.93027 10.6666 2.66665V5.33331H13.3333C14.0697 5.33331 14.6666 5.93027 14.6666 6.66665V13.3333C14.6666 14.0697 14.0697 14.6666 13.3333 14.6666H6.66665C5.93027 14.6666 5.33331 14.0697 5.33331 13.3333V10.6666H2.66665C1.93027 10.6666 1.33331 10.0697 1.33331 9.33331V2.66665ZM6.66665 10.6666V13.3333H13.3333V6.66665H10.6666V9.33331C10.6666 10.0697 10.0697 10.6666 9.33331 10.6666H6.66665ZM9.33331 9.33331V2.66665L2.66665 2.66665V9.33331H9.33331Z" fill="white"/>
</g>
</svg>
