<svg width="16" height="16" viewBox="0 0 16 16" fill="none" xmlns="http://www.w3.org/2000/svg">
<g id="delete-alt">
<path id="Icon" d="M4.66666 2.66665C4.66666 1.93027 5.26362 1.33331 6 1.33331H10C10.7364 1.33331 11.3334 1.93027 11.3334 2.66665V3.99999H12.6598C12.6639 3.99995 12.6681 3.99995 12.6722 3.99999H14C14.3682 3.99999 14.6667 4.29847 14.6667 4.66666C14.6667 5.03485 14.3682 5.33333 14 5.33333H13.2874L12.7092 13.4284C12.6594 14.1261 12.0788 14.6667 11.3793 14.6667H4.62074C3.92122 14.6667 3.34063 14.1261 3.29079 13.4284L2.71257 5.33333H1.99998C1.63179 5.33333 1.33331 5.03485 1.33331 4.66666C1.33331 4.29847 1.63179 3.99999 1.99998 3.99999H3.32782C3.33195 3.99995 3.33608 3.99995 3.3402 3.99999H4.66666V2.66665ZM6 3.99999H10V2.66665H6V3.99999ZM4.04931 5.33333L4.62074 13.3334H11.3793L11.9507 5.33333H4.04931Z" fill="white"/>
</g>
</svg>
