<svg width="16" height="16" viewBox="0 0 16 16" fill="none" xmlns="http://www.w3.org/2000/svg">
<g id="document">
<path id="Icon" d="M2.66675 2.66666C2.66675 1.93028 3.2637 1.33333 4.00008 1.33333H9.33342C9.51023 1.33333 9.6798 1.40357 9.80482 1.52859L13.1382 4.86192C13.2632 4.98695 13.3334 5.15652 13.3334 5.33333V13.3333C13.3334 14.0697 12.7365 14.6667 12.0001 14.6667H4.00008C3.2637 14.6667 2.66675 14.0697 2.66675 13.3333V2.66666ZM11.7239 5.33333L9.33342 2.9428V5.33333H11.7239ZM8.00008 2.66666L4.00008 2.66666V13.3333H12.0001V6.66666H8.66675C8.29856 6.66666 8.00008 6.36818 8.00008 5.99999V2.66666ZM5.33341 8.66666C5.33341 8.29847 5.63189 7.99999 6.00008 7.99999H10.0001C10.3683 7.99999 10.6667 8.29847 10.6667 8.66666C10.6667 9.03485 10.3683 9.33333 10.0001 9.33333H6.00008C5.63189 9.33333 5.33341 9.03485 5.33341 8.66666ZM5.33341 11.3333C5.33341 10.9651 5.63189 10.6667 6.00008 10.6667H10.0001C10.3683 10.6667 10.6667 10.9651 10.6667 11.3333C10.6667 11.7015 10.3683 12 10.0001 12H6.00008C5.63189 12 5.33341 11.7015 5.33341 11.3333Z" fill="white"/>
</g>
</svg>
