<svg
  width="18"
  height="22"
  viewBox="0 0 18 22"
  fill="none"
  xmlns="http://www.w3.org/2000/svg"
>
  <path
    d="M0 19V3C8.20837e-07 2.20435 0.316298 1.44151 0.878906 0.878906C1.44152 0.316298 2.20435 0 3 0H11V0.000976562C11.4479 0.000463969 11.8919 0.0873431 12.3057 0.258789C12.7193 0.430223 13.0949 0.681982 13.4111 0.999023L16.9971 4.58496L17.1133 4.70605C17.3773 4.99585 17.5896 5.32951 17.7402 5.69238C17.9122 6.1067 18.0005 6.55143 18 7V19C18 19.7956 17.6837 20.5585 17.1211 21.1211C16.5585 21.6837 15.7957 22 15 22H3C2.20435 22 1.44152 21.6837 0.878906 21.1211C0.316298 20.5585 0 19.7956 0 19ZM2 19C2 19.2652 2.10543 19.5195 2.29297 19.707C2.48051 19.8946 2.73478 20 3 20H15C15.2652 20 15.5195 19.8946 15.707 19.707C15.8946 19.5195 16 19.2652 16 19V6.99805C16.0003 6.81344 15.9642 6.6305 15.8936 6.45996C15.8227 6.28915 15.7181 6.13331 15.5869 6.00293L11.9961 2.41211C11.8658 2.28135 11.7106 2.17712 11.54 2.10645C11.3695 2.03581 11.1865 1.99974 11.002 2H3C2.73478 2 2.4805 2.10543 2.29297 2.29297C2.10543 2.4805 2 2.73478 2 3V19Z"
    fill="currentColor"
  />
  <path
    d="M10 6V1C10 0.447715 10.4477 0 11 0C11.5523 0 12 0.447715 12 1V6H17C17.5523 6 18 6.44772 18 7C18 7.55228 17.5523 8 17 8H12C11.4696 8 10.961 7.78913 10.5859 7.41406C10.2109 7.03899 10 6.53043 10 6Z"
    fill="currentColor"
  />
  <path
    d="M7 7C7.55228 7 8 7.44772 8 8C8 8.55228 7.55228 9 7 9H5C4.44772 9 4 8.55228 4 8C4 7.44772 4.44772 7 5 7H7Z"
    fill="currentColor"
  />
  <path
    d="M13 11C13.5523 11 14 11.4477 14 12C14 12.5523 13.5523 13 13 13H5C4.44772 13 4 12.5523 4 12C4 11.4477 4.44772 11 5 11H13Z"
    fill="currentColor"
  />
  <path
    d="M13 15C13.5523 15 14 15.4477 14 16C14 16.5523 13.5523 17 13 17H5C4.44772 17 4 16.5523 4 16C4 15.4477 4.44772 15 5 15H13Z"
    fill="currentColor"
  />
</svg>
