<svg width="16" height="16" viewBox="0 0 16 16" fill="none" xmlns="http://www.w3.org/2000/svg">
<path fill-rule="evenodd" clip-rule="evenodd" d="M3.33336 3.19808C4.34475 2.99025 5.1136 2.97763 5.7507 3.05727C6.4967 3.15052 7.09588 3.37285 7.76599 3.62414L7.78599 3.63164C8.44398 3.87841 9.17262 4.15168 10.0841 4.26561C10.82 4.3576 11.6542 4.34415 12.6668 4.15984V10.1351C11.6554 10.3429 10.8865 10.3556 10.2494 10.2759C9.50344 10.1827 8.90426 9.96035 8.23415 9.70906L8.21415 9.70156C7.55615 9.45478 6.82751 9.18152 5.91608 9.06759C5.18011 8.97559 4.3459 8.98905 3.33338 9.17336L3.33336 3.19808ZM13.1717 2.68649C11.905 3.00318 10.9886 3.03496 10.2494 2.94257C9.50344 2.84932 8.90426 2.62699 8.23415 2.3757L8.21415 2.36819C7.55615 2.12142 6.82751 1.84816 5.91608 1.73423C4.99158 1.61866 3.91208 1.6695 2.51883 2.01638C2.22178 2.08363 2 2.34921 2 2.66659V14C2 14.3682 2.29848 14.6666 2.66667 14.6666C3.03486 14.6666 3.33334 14.3682 3.33334 14V10.5314C4.34474 10.3236 5.1136 10.311 5.7507 10.3906C6.4967 10.4839 7.09588 10.7062 7.76599 10.9575L7.78598 10.965C8.44398 11.2118 9.17263 11.485 10.0841 11.599C11.0116 11.7149 12.0952 11.6634 13.4951 11.3134C13.7919 11.2392 14.0001 10.9725 14.0001 10.6666V3.33325C14.0001 3.12796 13.9055 2.93412 13.7437 2.80778C13.5819 2.68144 13.3709 2.6367 13.1717 2.68649Z" fill="white"/>
</svg>
