<svg version="1.0" xmlns="http://www.w3.org/2000/svg"
height="48.000000pt" viewBox="0 0 48.000000 48.000000"
 preserveAspectRatio="xMidYMid meet" style="width: 24px;">
<g transform="translate(0.000000,48.000000) scale(0.100000,-0.100000)"
fill="#000000" stroke="none">
<path d="M0 371 c0 -100 2 -109 20 -114 11 -3 20 -10 20 -16 0 -6 -9 -11 -20
-11 -19 0 -20 -7 -20 -115 l0 -115 109 0 c100 0 109 2 114 20 3 11 10 20 17
20 7 0 14 -9 17 -20 5 -18 14 -20 114 -20 l109 0 0 115 c0 108 -1 115 -20 115
-11 0 -20 5 -20 11 0 6 9 13 20 16 18 5 20 14 20 114 l0 109 -109 0 c-100 0
-109 -2 -114 -20 -3 -11 -10 -20 -17 -20 -7 0 -14 9 -17 20 -5 18 -14 20 -114
20 l-109 0 0 -109z m260 4 c0 -28 -4 -35 -20 -35 -16 0 -20 7 -20 35 0 28 4
35 20 35 16 0 20 -7 20 -35z m-2 -93 c2 -16 10 -22 28 -22 15 0 24 -6 24 -15
0 -9 -9 -15 -24 -15 -19 0 -25 -6 -28 -27 -2 -17 -9 -28 -18 -28 -9 0 -16 11
-18 28 -3 21 -9 27 -28 27 -15 0 -24 6 -24 15 0 9 9 15 25 15 18 0 25 5 25 18
0 38 33 41 38 4z m-118 -37 c0 -10 -11 -15 -35 -15 -24 0 -35 5 -35 15 0 10
11 15 35 15 24 0 35 -5 35 -15z m270 0 c0 -10 -11 -15 -35 -15 -24 0 -35 5
-35 15 0 10 11 15 35 15 24 0 35 -5 35 -15z m-150 -140 c0 -28 -4 -35 -20 -35
-16 0 -20 7 -20 35 0 28 4 35 20 35 16 0 20 -7 20 -35z"/>
</g>
</svg>
