<svg width="16" height="16" viewBox="0 0 16 16" fill="none" xmlns="http://www.w3.org/2000/svg">
<g id="git-branch">
<path id="Icon" fill-rule="evenodd" clip-rule="evenodd" d="M11.7501 2.5C11.3359 2.5 11.0001 2.83579 11.0001 3.25C11.0001 3.66421 11.3359 4 11.7501 4C12.1643 4 12.5001 3.66421 12.5001 3.25C12.5001 2.83579 12.1643 2.5 11.7501 2.5ZM9.50006 3.25C9.50006 2.00736 10.5075 1 11.7501 1C12.9927 1 14.0001 2.00736 14.0001 3.25C14.0001 4.22966 13.374 5.06309 12.5001 5.37197V6C12.5001 7.38071 11.3808 8.5 10.0001 8.5H6.00006C5.44778 8.5 5.00006 8.94772 5.00006 9.5V10.628C5.87395 10.9369 6.50006 11.7703 6.50006 12.75C6.50006 13.9926 5.4927 15 4.25006 15C3.00742 15 2.00006 13.9926 2.00006 12.75C2.00006 11.7703 2.62617 10.9369 3.50006 10.628V9.5V5.37197C2.62617 5.06309 2.00006 4.22966 2.00006 3.25C2.00006 2.00736 3.00742 1 4.25006 1C5.4927 1 6.50006 2.00736 6.50006 3.25C6.50006 4.22966 5.87395 5.06309 5.00006 5.37197V7.20802C5.30629 7.07422 5.64451 7 6.00006 7H10.0001C10.5524 7 11.0001 6.55228 11.0001 6V5.37197C10.1262 5.06309 9.50006 4.22966 9.50006 3.25ZM4.25006 12C3.83585 12 3.50006 12.3358 3.50006 12.75C3.50006 13.1642 3.83585 13.5 4.25006 13.5C4.66427 13.5 5.00006 13.1642 5.00006 12.75C5.00006 12.3358 4.66427 12 4.25006 12ZM3.50006 3.25C3.50006 2.83579 3.83585 2.5 4.25006 2.5C4.66427 2.5 5.00006 2.83579 5.00006 3.25C5.00006 3.66421 4.66427 4 4.25006 4C3.83585 4 3.50006 3.66421 3.50006 3.25Z" fill="white"/>
</g>
</svg>
