<svg width="16" height="16" viewBox="0 0 16 16" fill="none" xmlns="http://www.w3.org/2000/svg">
<g clip-path="url(#clip0_3963_299)">
<path fill-rule="evenodd" clip-rule="evenodd" d="M8.00011 5.5C8.66316 5.5 9.29904 5.7634 9.76788 6.23223C10.2367 6.70107 10.5001 7.33696 10.5001 8C10.5001 8.66304 10.2367 9.29893 9.76788 9.76777C9.29904 10.2366 8.66316 10.5 8.00011 10.5C7.33707 10.5 6.70119 10.2366 6.23235 9.76777C5.76351 9.29893 5.50011 8.66304 5.50011 8C5.50011 7.33696 5.76351 6.70107 6.23235 6.23223C6.70119 5.7634 7.33707 5.5 8.00011 5.5ZM8.75011 4.07C9.66452 4.2446 10.4894 4.7326 11.0828 5.4499C11.6761 6.16728 12.0007 7.06907 12.0007 8C12.0007 8.93093 11.6761 9.83272 11.0828 10.5501C10.4894 11.2674 9.66452 11.7554 8.75011 11.93L8.75011 15.25C8.75011 15.4489 8.6711 15.6397 8.53044 15.7803C8.38979 15.921 8.19903 16 8.00011 16C7.8012 16 7.61044 15.921 7.46978 15.7803C7.32913 15.6397 7.25011 15.4489 7.25011 15.25L7.25011 11.93C6.33571 11.7554 5.5108 11.2674 4.91747 10.5501C4.32414 9.83272 3.99951 8.93093 3.99951 8C3.99951 7.06907 4.32414 6.16728 4.91747 5.4499C5.5108 4.7326 6.33571 4.2446 7.25011 4.07L7.25011 0.75C7.25011 0.5511 7.32913 0.3603 7.46978 0.2197C7.61044 0.0789994 7.8012 -1.66177e-07 8.00011 -1.74872e-07C8.19903 -1.83567e-07 8.38979 0.0789993 8.53044 0.2197C8.6711 0.3603 8.75011 0.5511 8.75011 0.75L8.75011 4.07Z" fill="white"/>
</g>
<defs>
<clipPath id="clip0_3963_299">
<rect width="16" height="16" fill="white"/>
</clipPath>
</defs>
</svg>
