<svg width="16" height="16" viewBox="0 0 16 16" fill="none" xmlns="http://www.w3.org/2000/svg">
<g id="globe">
<path id="Icon" fill-rule="evenodd" clip-rule="evenodd" d="M2.34995 7.34375H4.74149C4.86768 5.52889 5.49887 4.05706 6.12477 3.01388C6.2282 2.84149 6.3317 2.68044 6.43305 2.53109C4.25721 3.15335 2.61474 5.03901 2.34995 7.34375ZM4.7415 8.65625H2.34995C2.61474 10.961 4.25726 12.8467 6.43313 13.4689C6.33176 13.3196 6.22823 13.1585 6.12477 12.986C5.49887 11.9428 4.8677 10.4711 4.7415 8.65625ZM6.05773 8.65625H9.94224C9.8193 10.1748 9.28707 11.4152 8.74977 12.3108C8.4818 12.7574 8.21437 13.115 8 13.3744C7.78563 13.115 7.5182 12.7574 7.25023 12.3108C6.71293 11.4152 6.18069 10.1748 6.05773 8.65625ZM9.94232 7.34375H6.05772C6.18067 5.82515 6.71292 4.58467 7.25023 3.68915C7.5182 3.24255 7.78563 2.88488 8 2.62549C8.21437 2.88488 8.4818 3.24255 8.74977 3.68915C9.28708 4.58467 9.8193 5.82515 9.94232 7.34375ZM11.2585 8.65625C11.1323 10.4711 10.5011 11.9428 9.87521 12.986C9.77179 13.1585 9.66824 13.3196 9.56687 13.4689C11.7427 12.8467 13.3853 10.961 13.6501 8.65625H11.2585ZM13.6501 7.34375H11.2585C11.1323 5.52889 10.5011 4.05706 9.87521 3.01388C9.77179 2.84149 9.66829 2.68044 9.56695 2.53108C11.7428 3.15334 13.3853 5.03901 13.6501 7.34375ZM8 1C4.134 1 1 4.134 1 8C1 11.866 4.134 15 8 15C11.866 15 15 11.866 15 8C15 4.134 11.866 1 8 1Z" fill="white"/>
</g>
</svg>
