<svg width="16" height="16" viewBox="0 0 16 16" fill="none" xmlns="http://www.w3.org/2000/svg">
<g clip-path="url(#clip0_4054_1788)">
<path d="M4.75 11C4.33579 11 4 11.3358 4 11.75C4 12.1642 4.33579 12.5 4.75 12.5H11.25C11.6642 12.5 12 12.1642 12 11.75C12 11.3358 11.6642 11 11.25 11H4.75Z" fill="white"/>
<path fill-rule="evenodd" clip-rule="evenodd" d="M0 6.0407C0 5.34617 0.36031 4.70138 0.951805 4.33738L6.9518 0.645072C7.59462 0.249494 8.40538 0.249494 9.04819 0.645072L15.0482 4.33738C15.6397 4.70138 16 5.34618 16 6.0407V14C16 15.1046 15.1046 16 14 16H2C0.895431 16 0 15.1046 0 14V6.0407ZM14.5 6.0407V14C14.5 14.2762 14.2761 14.5 14 14.5H2C1.72386 14.5 1.5 14.2762 1.5 14V6.0407C1.5 5.86707 1.59008 5.70587 1.73795 5.61487L7.73795 1.92256C7.89865 1.82366 8.10135 1.82367 8.26205 1.92256L14.262 5.61487C14.4099 5.70587 14.5 5.86707 14.5 6.0407Z" fill="white"/>
</g>
<defs>
<clipPath id="clip0_4054_1788">
<rect width="16" height="16" fill="white"/>
</clipPath>
</defs>
</svg>
