<svg width="24" height="24" viewBox="0 0 24 24" fill="none" xmlns="http://www.w3.org/2000/svg">
<path d="M4 10C4 8.89543 4.89543 8 6 8H8C8.55228 8 9 8.44772 9 9C9 9.55228 8.55228 10 8 10H6V19H18V10H16C15.4477 10 15 9.55228 15 9C15 8.44772 15.4477 8 16 8H18C19.1046 8 20 8.89543 20 10V19C20 20.1046 19.1046 21 18 21H6C4.89543 21 4 20.1046 4 19V10Z" fill="#0D0D0D"/>
<path d="M12.7071 16.7071C12.3166 17.0976 11.6834 17.0976 11.2929 16.7071L8.29289 13.7071C7.90237 13.3166 7.90237 12.6834 8.29289 12.2929C8.68342 11.9024 9.31658 11.9024 9.70711 12.2929L11 13.5858L11 4C11 3.44771 11.4477 3 12 3C12.5523 3 13 3.44771 13 4L13 13.5858L14.2929 12.2929C14.6834 11.9024 15.3166 11.9024 15.7071 12.2929C16.0976 12.6834 16.0976 13.3166 15.7071 13.7071L12.7071 16.7071Z" fill="#0D0D0D"/>
</svg>