<svg width="100%" height="100%" viewBox="0 0 81 41" fill="none" xmlns="http://www.w3.org/2000/svg" style="width: 24px; height: 24px;">
<path d="M61.5139 11.1569C60.4527 11.1569 59.4549 11.568 58.708 12.3148L55.6899 15.3248C54.8757 16.1368 54.4574 17.2643 54.5431 18.4202C54.5492 18.4833 54.5553 18.5464 54.5615 18.6115C54.6696 19.4988 55.0594 20.2986 55.6899 20.9254C56.1246 21.3589 56.6041 21.6337 57.1857 21.825C57.2163 22 57.2326 22.177 57.2326 22.3541C57.2326 23.1519 56.9225 23.9008 56.3592 24.4625L56.1735 24.6477C55.1655 24.3037 54.3247 23.8011 53.5656 23.044C52.5576 22.0386 51.8903 20.7687 51.6393 19.3747L51.6046 19.1813L51.4515 19.3055C51.3475 19.3889 51.2495 19.4785 51.1577 19.57L48.1396 22.58C46.5928 24.1226 46.5928 26.636 48.1396 28.1786C48.913 28.9499 49.9292 29.3366 50.9475 29.3366C51.9658 29.3366 52.98 28.9499 53.7534 28.1786L56.7715 25.1687C58.3183 23.626 58.3183 21.1147 56.7715 19.57C56.3592 19.159 55.8675 18.8496 55.3104 18.6502C55.2798 18.469 55.2634 18.2879 55.2634 18.1109C55.2634 17.2439 55.6063 16.4217 56.2348 15.7949C57.2449 16.1388 58.1407 16.6965 58.8978 17.4515C59.9038 18.4548 60.5691 19.7227 60.8241 21.1208L60.8588 21.3141L61.0119 21.19C61.116 21.1066 61.2139 21.017 61.3078 20.9234L64.3259 17.9135C65.8727 16.3708 65.8747 13.8575 64.3259 12.3148C63.577 11.568 62.5811 11.1569 61.518 11.1569H61.5139Z" fill="CurrentColor"></path>
<path d="M59.8966 0.148865H20.4063C9.15426 0.148865 0 9.27841 0 20.5001C0 31.7217 9.15426 40.8513 20.4063 40.8513H59.8966C71.1486 40.8513 80.3029 31.7217 80.3029 20.5001C80.3029 9.27841 71.1486 0.148865 59.8966 0.148865ZM40.4188 32.0555C39.7678 32.1898 39.0352 32.2142 38.5373 31.6953C38.3536 32.1165 37.9251 31.8947 37.5945 31.8398C37.5639 31.9252 37.5374 32.0005 37.5088 32.086C36.4089 32.1593 35.5845 31.04 35.0601 30.1954C34.0193 29.6337 32.8378 29.2918 31.7746 28.7036C31.7134 29.6724 31.9257 30.8731 31.0012 31.4979C30.9543 33.36 33.8255 31.7177 34.0887 33.1056C33.8847 33.128 33.6582 33.073 33.4949 33.2297C32.746 33.9563 31.8869 32.6803 31.0237 33.2074C29.8646 33.7894 29.7483 34.2656 28.3137 34.3857C28.2342 34.2656 28.2668 34.1862 28.3341 34.113C28.7382 33.6449 28.7668 33.0934 29.4565 32.8939C28.7464 32.782 28.1525 33.1728 27.5546 33.4821C26.7771 33.7996 26.7833 32.7657 25.5875 33.537C25.4548 33.4292 25.5181 33.3315 25.5936 33.2481C25.8976 32.8777 26.2976 32.8227 26.7486 32.8431C24.5304 31.6098 23.4856 34.3511 22.4612 32.9876C22.1531 33.069 22.0368 33.3457 21.8429 33.5411C21.6756 33.358 21.8021 33.1361 21.8103 32.9204C21.6103 32.8268 21.3572 32.782 21.4164 32.4625C21.0246 32.3302 20.7512 32.5622 20.4594 32.782C20.1961 32.5785 20.6369 32.2814 20.7185 32.0697C20.9532 31.6627 21.4878 31.9863 21.7592 31.6932C22.5306 31.2557 23.606 31.9659 24.4876 31.8459C25.1671 31.9313 26.0078 31.2353 25.667 30.5413C24.9406 29.6154 25.0691 28.4045 25.0528 27.2974C24.963 26.6522 23.4101 25.83 22.9612 25.134C22.4061 24.5072 21.9735 23.7807 21.5409 23.0664C19.9798 20.0523 20.4716 16.1795 18.5044 13.3812C17.6147 13.8717 16.4556 13.6397 15.6884 12.9823C15.2741 13.3588 15.2557 13.8513 15.2231 14.3744C14.2293 13.3833 14.3538 11.5109 15.1476 10.4079C15.4721 9.97239 15.8598 9.61421 16.2924 9.29876C16.3903 9.22754 16.423 9.15834 16.4209 9.04844C17.2066 5.52362 22.5653 6.20335 24.259 8.70044C25.4875 10.237 25.8589 12.27 27.2526 13.6967C29.1279 15.744 31.2645 17.5471 32.9949 19.7267C34.6315 21.7191 35.8008 24.0554 36.8211 26.4101C37.2374 27.1915 37.2415 28.1501 37.8578 28.8176C38.1618 29.2206 39.6474 30.3175 39.325 30.7062C39.5107 31.1091 40.8983 31.6647 40.4167 32.0555H40.4188ZM66.4449 20.032L63.4269 23.0419C62.6228 23.8438 61.6291 24.4421 60.5516 24.7697L60.4965 24.786L60.4761 24.8389C60.1251 25.7629 59.5925 26.5871 58.8905 27.2852L55.8724 30.2951C54.5562 31.6078 52.8054 32.3302 50.9402 32.3302C49.0751 32.3302 47.3242 31.6078 46.008 30.2951C43.2879 27.5823 43.2879 23.1701 46.008 20.4573L49.0261 17.4474C49.8342 16.6415 50.8015 16.0615 51.8973 15.7257L51.9524 15.7094L51.9728 15.6565C52.3238 14.7325 52.8584 13.9063 53.5625 13.2021L56.5805 10.1922C57.8967 8.87953 59.6476 8.15706 61.5127 8.15706C63.3779 8.15706 65.1287 8.87953 66.4449 10.1922C67.7612 11.5048 68.4856 13.251 68.4856 15.1111C68.4856 16.9712 67.7612 18.7193 66.4449 20.03V20.032Z" fill="CurrentColor"></path>
<path d="M28.1422 28.4126C27.8769 29.4424 27.7912 31.1946 26.4485 31.2455C26.3383 31.8398 26.8607 32.0636 27.3382 31.8723C27.8096 31.6566 28.034 32.0433 28.1932 32.4279C28.9217 32.5337 29.9992 32.1857 30.04 31.3249C28.9523 30.7001 28.6156 29.5116 28.1442 28.4106L28.1422 28.4126Z" fill="CurrentColor"></path>
</svg>