<svg width="16" height="16" viewBox="0 0 16 16" fill="none" xmlns="http://www.w3.org/2000/svg">
<path d="M7.67622 1.41727C7.87757 1.30541 8.12239 1.30541 8.32374 1.41727L14.3237 4.7506C14.5354 4.86818 14.6666 5.09126 14.6666 5.33337C14.6666 5.57549 14.5354 5.79857 14.3237 5.91615L8.32374 9.24948C8.12239 9.36134 7.87757 9.36134 7.67622 9.24948L1.67622 5.91615C1.46457 5.79857 1.33331 5.57549 1.33331 5.33337C1.33331 5.09126 1.46457 4.86818 1.67622 4.7506L7.67622 1.41727ZM3.37273 5.33337L7.99998 7.90407L12.6272 5.33337L7.99998 2.76268L3.37273 5.33337Z" fill="white"/>
<path d="M1.41721 7.67628C1.59602 7.35442 2.00189 7.23846 2.32374 7.41727L7.99998 10.5707L13.6762 7.41727C13.9981 7.23846 14.4039 7.35442 14.5828 7.67628C14.7616 7.99813 14.6456 8.404 14.3237 8.58281L8.32374 11.9161C8.12239 12.028 7.87757 12.028 7.67622 11.9161L1.67622 8.58281C1.35436 8.404 1.2384 7.99813 1.41721 7.67628Z" fill="white"/>
<path d="M1.41721 10.3429C1.59602 10.0211 2.00189 9.90513 2.32374 10.0839L7.99998 13.2374L13.6762 10.0839C13.9981 9.90513 14.4039 10.0211 14.5828 10.3429C14.7616 10.6648 14.6456 11.0707 14.3237 11.2495L8.32374 14.5828C8.12239 14.6947 7.87757 14.6947 7.67622 14.5828L1.67622 11.2495C1.35436 11.0707 1.2384 10.6648 1.41721 10.3429Z" fill="white"/>
</svg>
