<svg width="16" height="16" viewBox="0 0 16 16" fill="none" xmlns="http://www.w3.org/2000/svg">
<g id="layout">
<path id="Icon" d="M1.33331 3.33331C1.33331 2.59693 1.93027 1.99997 2.66665 1.99997H13.3334C14.0697 1.99997 14.6667 2.59693 14.6667 3.33331V6.66665V12.6667C14.6667 13.4031 14.0697 14 13.3334 14H6H2.66665C2.66378 14 2.6609 14 2.65803 14C1.92562 13.9954 1.33331 13.4002 1.33331 12.6667V6.66665V3.33331ZM2.66665 5.99998H6H13.3334V3.33331H2.66665V5.99998ZM5.33333 7.33332H2.66665V12.6667H5.33333V7.33332ZM6.66667 12.6667H13.3334V7.33332H6.66667V12.6667Z" fill="white"/>
</g>
</svg>
