<svg width="22" height="22" viewBox="0 0 22 22" fill="none" xmlns="http://www.w3.org/2000/svg" style="width: 24px;">
<path d="M17.6019 2.99742V0H4.40033V2.99742C4.40033 3.77228 3.77267 4.39988 2.99773 4.39988H0V17.6001H2.99773C3.77267 17.6001 4.40033 18.2277 4.40033 19.0026V22H17.6019V19.0026C17.6019 18.2277 18.2296 17.6001 19.0045 17.6001H22.0023V4.39988H19.0045C18.2296 4.39988 17.6019 3.77228 17.6019 2.99742ZM17.6019 16.1971C17.6019 16.9719 16.9743 17.5995 16.1993 17.5995H5.80355C5.0286 17.5995 4.40094 16.9719 4.40094 16.1971V5.80234C4.40094 5.02747 5.0286 4.39988 5.80355 4.39988H16.1993C16.9743 4.39988 17.6019 5.02747 17.6019 5.80234V16.1971Z" fill="currentColor"></path>
</svg>
