<svg xmlns="http://www.w3.org/2000/svg" viewBox="0 0 40 35" style="width: 24px;">
<g transform="translate(-2, 33.6)" fill="currentColor" stroke="none">
<path d="M2.21-32.45L2.21-32.45Q2.21-32.64 2.45-32.78L2.45-32.78 37.49-32.78Q37.73-32.64 37.73-32.45L37.73-32.45Q37.73-32.35 29.59-15.65 21.46 1.06 21.31 1.25L21.31 1.25Q21.07 1.58 19.97 1.58 18.86 1.58 18.62 1.25L18.62 1.25Q18.48 1.06 10.34-15.65 2.21-32.35 2.21-32.45ZM33.46-28.61L33.46-28.61Q33.46-28.66 21.36-28.66 9.26-28.66 9.26-28.61L9.26-28.61Q9.36-28.37 15.34-16.1 21.31-3.84 21.36-3.84L21.36-3.84Q33.36-28.42 33.46-28.61Z"/>
</g>
</svg>
