<svg fill="#000000" width="800px" height="800px" viewBox="0 0 32 32" style="width: 24px;">
    <path d="M20.465 5.877c0-0.379 0.308-0.686 0.687-0.686s0.687 0.307 0.687 0.687-0.307 0.687-0.687 0.687c-0.379 0-0.686-0.307-0.687-0.686v-0zM16.006 1.004l-8.814 8.814c-2.257 2.245-3.654 5.352-3.654 8.786 0 6.843 5.547 12.39 12.39 12.39 3.434 0 6.541-1.397 8.785-3.653l0.001-0.001c2.312-2.229 3.748-5.354 3.748-8.814 0-3.408-1.393-6.49-3.641-8.709l-0.001-0.001-2.179 2.178c1.685 1.685 2.727 4.013 2.727 6.584 0 5.143-4.169 9.312-9.312 9.312s-9.312-4.169-9.312-9.312c0-2.571 1.042-4.899 2.727-6.584l5.807-5.806 0.727-0.831z"></path>
</svg>
