<svg viewBox="0.22 -0.01 599.63 582.58" xmlns="http://www.w3.org/2000/svg" width="2500" height="2430"><path d="M599.85 297.43C599.85 133.16 465.63-.01 300.03-.01 134.5-.01.22 133.16.22 297.43c0 109.12 59.43 204.21 147.69 256.04l19.22-127.5c-28.48-31.45-45.96-72.91-45.96-118.52 0-98 80.1-177.47 178.86-177.47 98.83 0 178.87 79.47 178.87 177.47 0 46.02-17.69 87.77-46.58 119.21l19.14 127.23c88.67-51.7 148.39-147 148.39-256.46z" fill="#ff7a24"/><path d="M332.93 387.41l36.42 195.16H228.64l36.28-194.82c-35.87-13.61-61.51-48.03-61.51-88.66 0-52.53 42.58-95.1 95.03-95.1 52.53 0 95.03 42.57 95.03 95.1 0 40.29-25.15 74.49-60.54 88.32z" fill="#123467"/></svg>