<svg width="16" height="16" viewBox="0 0 16 16" fill="none" xmlns="http://www.w3.org/2000/svg"> <path fill-rule="evenodd" clip-rule="evenodd" d="M5 4C5 2.34315 6.34315 1 8 1C9.65685 1 11 2.34315 11 4C11 5.65685 9.65685 7 8 7C6.34315 7 5 5.65685 5 4ZM8 2.5C7.17157 2.5 6.5 3.17157 6.5 4C6.5 4.82843 7.17157 5.5 8 5.5C8.82843 5.5 9.5 4.82843 9.5 4C9.5 3.17157 8.82843 2.5 8 2.5ZM7.25 7H8.75V10H7.25ZM4.5 8.5H5.5V10H4.5ZM2.5 10H13.5C14.3284 10 15 10.6716 15 11.5V13.5C15 14.3284 14.3284 15 13.5 15H2.5C1.67157 15 1 14.3284 1 13.5V11.5C1 10.6716 1.67157 10 2.5 10ZM2.5 11.5H13.5V13.5H2.5V11.5Z" fill="white"/> </svg>