<svg width="16" height="16" viewBox="0 0 16 16" fill="none" xmlns="http://www.w3.org/2000/svg">
<g id="pulse">
<path id="Icon" fill-rule="evenodd" clip-rule="evenodd" d="M6 2C6.30668 2 6.58246 2.18671 6.69636 2.47146L10 10.7306L11.3036 7.47146C11.4175 7.18671 11.6933 7 12 7H15.25C15.6642 7 16 7.33579 16 7.75C16 8.16421 15.6642 8.5 15.25 8.5H12.5078L10.6964 13.0285C10.5825 13.3133 10.3067 13.5 10 13.5C9.69332 13.5 9.41754 13.3133 9.30364 13.0285L6 4.76944L4.69636 8.02854C4.58246 8.31329 4.30668 8.5 4 8.5H0.75C0.335786 8.5 0 8.16421 0 7.75C0 7.33579 0.335786 7 0.75 7H3.49223L5.30364 2.47146C5.41754 2.18671 5.69332 2 6 2Z" fill="white"/>
</g>
</svg>
