<svg
  width="22"
  height="22"
  viewBox="0 0 22 22"
  fill="none"
  xmlns="http://www.w3.org/2000/svg"
>
  <path
    d="M4.50291 13.9898C5.18846 14.011 5.84633 14.2526 6.37986 14.6753L6.60057 14.8677L6.61228 14.8794C7.80031 16.0524 7.78467 17.9339 6.76463 19.1431L6.7656 19.1441C6.32287 19.6711 5.71264 20.0577 5.12596 20.3443C4.52782 20.6365 3.88251 20.8591 3.30271 21.025C2.71991 21.1917 2.18209 21.3071 1.79099 21.3814C1.59473 21.4187 1.43284 21.4464 1.31932 21.4644C1.26285 21.4734 1.2181 21.4803 1.1865 21.4849C1.17065 21.4872 1.15743 21.4885 1.14842 21.4898C1.14409 21.4904 1.14032 21.4914 1.13767 21.4918H1.13279C0.823946 21.533 0.513278 21.4279 0.292948 21.2076C0.0728113 20.9873 -0.0323844 20.6774 0.00876837 20.3687L0.999979 20.5005L0.00876837 20.3677V20.3668C0.00889139 20.3658 0.00955873 20.3642 0.00974494 20.3628C0.010113 20.3602 0.0101065 20.3565 0.0107215 20.3521C0.0119695 20.3432 0.0142985 20.3307 0.0165809 20.315C0.0211889 20.2833 0.0280853 20.238 0.0370887 20.1812C0.0550784 20.0677 0.0818779 19.9067 0.11912 19.7105C0.193364 19.3195 0.308874 18.7816 0.475565 18.1988C0.641424 17.6189 0.864041 16.9728 1.15623 16.3746C1.44279 15.7879 1.82945 15.1776 2.35642 14.7349C2.95556 14.2305 3.72004 13.9656 4.50291 13.9898ZM4.44139 15.9888C4.15078 15.9798 3.86688 16.0779 3.64451 16.2652L3.64353 16.2662C3.42063 16.4534 3.18213 16.7836 2.9531 17.2525C2.72967 17.7099 2.54603 18.2359 2.39939 18.7486C2.35229 18.9133 2.30982 19.0745 2.27146 19.2291C2.42611 19.1907 2.58811 19.1492 2.75291 19.1021C3.26541 18.9555 3.79072 18.7708 4.24803 18.5474C4.71683 18.3184 5.04709 18.0808 5.23435 17.858L5.23631 17.855C5.6332 17.3853 5.59857 16.6919 5.20994 16.3052C5.00078 16.11 4.72766 15.9977 4.44139 15.9888Z"
    fill="currentColor"
  />
  <path
    d="M20.506 0.000264845C21.0557 0.00367478 21.5 0.450514 21.5001 1.00026C21.5001 3.91644 20.651 9.08041 15.0568 12.8313C15.0494 12.8362 15.0417 12.8413 15.0343 12.846C13.7148 13.6803 12.3148 14.3799 10.8556 14.9348C10.4875 15.0748 10.0716 14.9858 9.79308 14.7073L6.79308 11.7073C6.51355 11.4277 6.42529 11.0098 6.5675 10.6409C7.12382 9.19761 7.82428 7.81367 8.65832 6.51101C9.91354 4.50757 11.6599 2.85744 13.7316 1.71804C15.8062 0.577073 18.1383 -0.0143617 20.506 0.000264845ZM19.4581 2.0403C17.7912 2.17575 16.1676 2.66129 14.6954 3.47097C12.9196 4.44766 11.4225 5.86208 10.3478 7.58034L10.3419 7.59011C9.69667 8.59796 9.13916 9.65888 8.67492 10.761L10.7413 12.8274C11.8568 12.3643 12.9314 11.8076 13.9532 11.1624C18.1783 8.32457 19.2536 4.61446 19.4581 2.0403Z"
    fill="currentColor"
  />
  <path
    d="M5.87192 5.54913C6.5146 5.48939 7.16782 5.53069 7.7352 5.60381C8.30635 5.67742 8.81779 5.7876 9.18539 5.87823C9.3699 5.92372 9.52068 5.96498 9.6268 5.99542C9.67992 6.01066 9.72288 6.02344 9.75278 6.03253C9.76751 6.037 9.77933 6.04059 9.78793 6.04327C9.79225 6.04461 9.79597 6.04534 9.79868 6.0462C9.7998 6.04655 9.80077 6.04691 9.80161 6.04717L9.80356 6.04815C9.80377 6.04822 9.8043 6.04828 9.55942 6.81475L9.80453 6.04815C10.3304 6.21634 10.62 6.77901 10.452 7.30499C10.2839 7.83107 9.72124 8.12054 9.19516 7.95245C9.19449 7.95224 9.19331 7.95279 9.19223 7.95245C9.18804 7.95114 9.18087 7.94869 9.17075 7.94561C9.15037 7.93942 9.11839 7.92945 9.07602 7.91729C8.99099 7.8929 8.86437 7.85847 8.70688 7.81963C8.39015 7.74154 7.95542 7.64857 7.47934 7.58721C6.99941 7.52537 6.504 7.49985 6.05746 7.54131C5.60215 7.58363 5.26954 7.68997 5.05453 7.83331C4.62005 8.12501 4.209 8.84347 3.89633 9.70538C3.85989 9.80584 3.82618 9.90507 3.79477 10.0013H7.49985C8.05213 10.0013 8.49985 10.449 8.49985 11.0013C8.49959 11.5533 8.05198 12.0013 7.49985 12.0013H2.49985C2.20345 12.0013 1.92226 11.8694 1.73227 11.6419C1.54236 11.4144 1.46268 11.1141 1.51547 10.8226L2.49985 11.0013L1.51645 10.8216V10.8167C1.51691 10.8142 1.51766 10.8109 1.5184 10.8069C1.5199 10.799 1.5226 10.7882 1.52524 10.7747C1.53052 10.7477 1.53771 10.7098 1.5477 10.6624C1.56769 10.5676 1.59733 10.4339 1.63754 10.2718C1.71769 9.94864 1.8421 9.5044 2.01645 9.02374C2.34091 8.12925 2.92927 6.84819 3.94418 6.16924H3.94516C4.54014 5.77259 5.23787 5.60806 5.87192 5.54913Z"
    fill="currentColor"
  />
  <path
    d="M14.1953 11.0487C14.7213 10.8807 15.2839 11.1704 15.4521 11.6962L14.5 12.0009L15.4531 11.6972V11.6991C15.4534 11.6999 15.4537 11.7009 15.4541 11.702C15.455 11.7048 15.4567 11.7084 15.458 11.7128C15.4607 11.7214 15.4643 11.7332 15.4688 11.7479C15.4778 11.7778 15.4906 11.8208 15.5059 11.8739C15.5363 11.98 15.5776 12.1309 15.623 12.3153C15.7137 12.6829 15.8229 13.1944 15.8965 13.7655C15.9696 14.3329 16.0109 14.9861 15.9512 15.6288C15.8922 16.2628 15.7287 16.9606 15.332 17.5556L15.3311 17.5565C14.6522 18.5713 13.372 19.1598 12.4775 19.4843C11.9969 19.6586 11.5526 19.783 11.2295 19.8632C11.0674 19.9034 10.9337 19.933 10.8389 19.953C10.7914 19.963 10.7526 19.9702 10.7256 19.9755C10.7122 19.9781 10.7012 19.9808 10.6934 19.9823C10.6896 19.983 10.686 19.9838 10.6836 19.9843H10.6787V19.9852C10.387 20.0382 10.087 19.9584 9.85938 19.7684C9.63179 19.5785 9.5 19.2973 9.5 19.0009V14.0009C9.5 13.4486 9.94772 13.0009 10.5 13.0009C11.0523 13.0009 11.5 13.4486 11.5 14.0009V17.705C11.5959 17.6736 11.6948 17.6407 11.7949 17.6044C12.6578 17.2914 13.3778 16.8802 13.6689 16.4452C13.8119 16.2302 13.9177 15.8978 13.96 15.4433C14.0014 14.9967 13.9749 14.5013 13.9131 14.0214C13.8517 13.5452 13.7588 13.1106 13.6807 12.7938C13.6418 12.6363 13.6074 12.5097 13.583 12.4247C13.5709 12.3824 13.5609 12.3503 13.5547 12.33C13.5517 12.32 13.5501 12.3127 13.5488 12.3085L13.5469 12.3046C13.3793 11.7789 13.6697 11.2169 14.1953 11.0487Z"
    fill="currentColor"
  />
</svg>
