<svg xmlns="http://www.w3.org/2000/svg" viewBox="0 0 16 16" style="width: 24px;"><path fill-rule="evenodd" d="M5 3 H11 A2 2 0 0 1 13 5 V11 A2 2 0 0 1 11 13 H5 A2 2 0 0 1 3 11 V5 A2 2 0 0 1 5 3 Z M6 5 H10 A1 1 0 0 1 11 6 V10 A1 1 0 0 1 10 11 H6 A1 1 0 0 1 5 10 V6 A1 1 0 0 1 6 5 Z M6.5 6.5 H9.5 V9.5 H6.5 Z M5.5 1 H6.75 V3 H5.5 Z M9.25 1 H10.5 V3 H9.25 Z M5.5 13 H6.75 V15 H5.5 Z M9.25 13 H10.5 V15 H9.25 Z M1 5.5 H3 V6.75 H1 Z M1 9.25 H3 V10.5 H1 Z M13 5.5 H15 V6.75 H13 Z M13 9.25 H15 V10.5 H13 Z"></path></svg>
