<svg width="16" height="16" viewBox="0 0 16 16" fill="none" xmlns="http://www.w3.org/2000/svg">
<g id="key">
<path id="Icon" fill-rule="evenodd" clip-rule="evenodd" d="M8.53336 0.0832583C8.18645 -0.0277523 7.81355 -0.0277529 7.46664 0.0832573L2.21664 1.76326C1.49183 1.9952 1 2.66898 1 3.43V6.95005C1 8.5161 1.31923 10.1325 2.3032 11.6322C3.28631 13.1307 4.88836 14.4448 7.33508 15.4869C7.75909 15.6675 8.24091 15.6675 8.66493 15.4869C11.1116 14.4448 12.7137 13.1307 13.6968 11.6322C14.6808 10.1325 15 8.5161 15 6.95005V3.43C15 2.66898 14.5082 1.9952 13.7834 1.76326L8.53336 0.0832583ZM7.92381 1.5119C7.97336 1.49604 8.02664 1.49604 8.07619 1.5119L13.3262 3.1919C13.4297 3.22503 13.5 3.32129 13.5 3.43V6.95005C13.5 8.30838 13.2253 9.61637 12.4426 10.8094C11.6591 12.0037 10.3216 13.1509 8.07713 14.1069C8.02866 14.1275 7.97134 14.1275 7.92287 14.1069C5.67838 13.1509 4.34094 12.0037 3.55737 10.8094C2.77465 9.61637 2.5 8.30838 2.5 6.95005V3.43C2.5 3.32129 2.57026 3.22503 2.67381 3.1919L7.92381 1.5119Z" fill="white"/>
</g>
</svg>
