<svg width="16" height="16" viewBox="0 0 16 16" fill="none" xmlns="http://www.w3.org/2000/svg">
<g id="switch">
<path id="Icon" d="M9.5287 1.52857C9.78905 1.26822 10.2112 1.26822 10.4715 1.52857L13.1382 4.19525C13.3985 4.4556 13.3985 4.87771 13.1382 5.13806L10.4715 7.80474C10.2112 8.06509 9.78905 8.06509 9.5287 7.80474C9.26835 7.54439 9.26835 7.12228 9.5287 6.86193L11.0573 5.33332H3.33342C2.96523 5.33332 2.66675 5.03485 2.66675 4.66666C2.66675 4.29846 2.96523 3.99999 3.33342 3.99999L11.0573 3.99999L9.5287 2.47138C9.26835 2.21103 9.26835 1.78892 9.5287 1.52857ZM6.4715 8.19526C6.73185 8.45562 6.73185 8.87773 6.4715 9.13808L4.9429 10.6667H12.6668C13.035 10.6667 13.3335 10.9652 13.3335 11.3333C13.3335 11.7015 13.035 12 12.6668 12H4.9429L6.4715 13.5286C6.73185 13.789 6.73185 14.2111 6.4715 14.4714C6.21115 14.7318 5.78904 14.7318 5.52869 14.4714L2.86201 11.8048C2.73699 11.6797 2.66675 11.5102 2.66675 11.3333C2.66675 11.1565 2.73699 10.987 2.86201 10.8619L5.52869 8.19526C5.78904 7.93491 6.21115 7.93491 6.4715 8.19526Z" fill="white"/>
</g>
</svg>
