<svg width="16" height="16" viewBox="0 0 16 16" fill="none" xmlns="http://www.w3.org/2000/svg">
<g id="table">
<path id="Icon" d="M1.33325 3.66665C1.33325 2.93027 1.93021 2.33331 2.66659 2.33331H13.3333C14.0697 2.33331 14.6666 2.93027 14.6666 3.66665V12.3334C14.6666 13.0697 14.0697 13.6667 13.3333 13.6667H2.66659C1.93021 13.6667 1.33325 13.0697 1.33325 12.3334V3.66665ZM7.33328 3.66665H2.66659V5.66666H7.33328V3.66665ZM8.66661 3.66665V5.66666H13.3333V3.66665H8.66661ZM13.3333 7H8.66661V9.00001H13.3333V7ZM13.3333 10.3333H8.66661V12.3334H13.3333V10.3333ZM7.33328 12.3334V10.3333H2.66659V12.3334H7.33328ZM2.66659 9.00001H7.33328V7H2.66659V9.00001Z" fill="white"/>
</g>
</svg>
