<svg width="16" height="16" viewBox="0 0 16 16" fill="none" xmlns="http://www.w3.org/2000/svg">
<g id="tag">
<g id="Icon">
<path d="M1.33331 1.99998C1.33331 1.63179 1.63179 1.33331 1.99998 1.33331H7.33334C7.51015 1.33331 7.67972 1.40355 7.80474 1.52858L14.4714 8.19527C14.7318 8.45562 14.7318 8.87773 14.4714 9.13808L9.13808 14.4714C8.87773 14.7318 8.45562 14.7318 8.19527 14.4714L1.52858 7.80474C1.40355 7.67972 1.33331 7.51015 1.33331 7.33334V1.99998ZM2.66665 2.66665V7.05719L8.66667 13.0572L13.0572 8.66667L7.05719 2.66665H2.66665Z" fill="white"/>
<path d="M6 4.99999C6 5.55228 5.55228 6 4.99999 6C4.44771 6 3.99999 5.55228 3.99999 4.99999C3.99999 4.44771 4.44771 3.99999 4.99999 3.99999C5.55228 3.99999 6 4.44771 6 4.99999Z" fill="white"/>
</g>
</g>
</svg>
