<svg xmlns="http://www.w3.org/2000/svg" viewBox="0 0 805 310" style="width: 24px;">
<g transform="translate(0,310) scale(0.1,-0.1)" fill="currentColor" stroke="none">
<path d="M3338 3023 c7 -3 16 -2 19 1 4 3 -2 6 -13 5 -11 0 -14 -3 -6 -6z"/>
<path d="M3190 3005 c-41 -7 -192 -32 -335 -54 -143 -23 -314 -50 -380 -61
-66 -11 -572 -92 -1125 -180 -1168 -186 -1331 -212 -1328 -215 8 -7 946 -305
958 -305 8 0 177 54 375 120 l360 119 3 -47 c3 -42 -30 -1000 -43 -1242 -10
-203 -27 -736 -24 -754 2 -11 34 131 71 315 37 184 140 692 228 1129 89 437
164 810 167 828 3 19 11 35 17 37 6 2 137 37 291 79 741 198 852 228 875 236
24 8 24 8 -5 8 -16 0 -64 -6 -105 -13z"/>
<path d="M6070 2679 c-129 -67 -239 -124 -243 -129 -8 -7 -196 -421 -467
-1025 -54 -121 -155 -346 -225 -500 -70 -154 -129 -285 -131 -291 -3 -6 104
-90 238 -186 l244 -175 871 -87 c480 -48 880 -86 890 -84 10 2 -153 50 -362
107 -209 57 -416 114 -460 126 -44 12 -268 73 -499 136 -230 63 -421 120 -423
126 -3 7 22 81 55 165 113 287 430 1095 634 1617 65 168 117 308 116 312 -2 5
-109 -46 -238 -112z"/>
<path d="M2803 2511 c-105 -42 -194 -79 -197 -82 -6 -6 -62 -265 -261 -1199
-69 -327 -129 -603 -131 -612 -4 -12 55 -59 236 -189 132 -94 242 -170 244
-168 3 3 77 682 93 852 3 32 9 60 13 62 4 3 173 -56 376 -131 203 -74 491
-180 639 -234 149 -54 418 -153 599 -219 181 -66 331 -119 332 -118 2 2 -32
23 -74 48 -119 71 -403 238 -542 319 -69 40 -145 85 -170 100 -25 15 -147 87
-272 160 -126 72 -228 135 -228 139 0 10 -55 -14 730 311 377 156 687 285 689
287 4 3 -16 137 -46 310 -6 36 1 33 -148 67 -38 8 -340 77 -670 151 -330 75
-688 156 -796 180 -108 25 -202 45 -210 44 -8 0 -100 -35 -206 -78z m593 -381
c1055 -209 1027 -203 1013 -213 -2 -2 -179 -83 -394 -180 -214 -97 -574 -260
-799 -362 -225 -102 -411 -183 -414 -181 -2 3 5 94 17 203 94 894 85 823 105
823 7 0 220 -41 472 -90z"/>
</g>
</svg>
