<svg width="16" height="16" viewBox="0 0 16 16" fill="none" xmlns="http://www.w3.org/2000/svg">
<path fill-rule="evenodd" clip-rule="evenodd" d="M15 8C15 4.13401 11.866 1 8 1C7.99988 1 8.00012 1 8 1C7.48525 1.00002 6.9831 1.05561 6.49997 1.16109C4.26191 1.64972 2.42405 3.20902 1.55009 5.27528C1.19588 6.11275 1 7.0335 1 8C1 11.3511 3.35481 14.1522 6.49997 14.8389C6.52966 14.8454 6.55942 14.8517 6.58926 14.8578C6.70697 14.8819 6.82576 14.903 6.94555 14.9211C7.28945 14.9731 7.64156 15 7.99997 15C7.99996 15 7.99998 15 7.99997 15C11.866 15 15 11.866 15 8ZM8 13.5C11.0376 13.5 13.5 11.0376 13.5 8C13.5 4.96243 11.0376 2.5 8 2.5V13.5Z" fill="white"/>
</svg>
