<svg width="16" height="16" viewBox="0 0 16 16" fill="none" xmlns="http://www.w3.org/2000/svg">
<g id="users">
<path id="Icon" d="M6.66665 2.66665C5.19389 2.66665 3.99998 3.86055 3.99998 5.33331C3.99998 6.80607 5.19389 7.99998 6.66665 7.99998C8.13941 7.99998 9.33331 6.80607 9.33331 5.33331C9.33331 3.86055 8.13941 2.66665 6.66665 2.66665ZM2.66665 5.33331C2.66665 3.12417 4.45751 1.33331 6.66665 1.33331C8.87579 1.33331 10.6666 3.12417 10.6666 5.33331C10.6666 7.54245 8.87579 9.33331 6.66665 9.33331C4.45751 9.33331 2.66665 7.54245 2.66665 5.33331ZM11.2189 2.50489C11.4793 2.24454 11.9014 2.24454 12.1617 2.50489C13.7238 4.06698 13.7238 6.59964 12.1617 8.16174C11.9014 8.42209 11.4793 8.42209 11.2189 8.16174C10.9586 7.90139 10.9586 7.47928 11.2189 7.21893C12.2603 6.17753 12.2603 4.48909 11.2189 3.4477C10.9586 3.18735 10.9586 2.76524 11.2189 2.50489ZM11.6866 11.1716C11.7759 10.8144 12.1378 10.5973 12.495 10.6866C13.3803 10.9079 13.9406 11.4739 14.2629 12.1185C14.5748 12.7422 14.6666 13.4381 14.6666 14C14.6666 14.3682 14.3682 14.6666 14 14.6666C13.6318 14.6666 13.3333 14.3682 13.3333 14C13.3333 13.5619 13.2585 13.0911 13.0704 12.7148C12.8926 12.3594 12.6197 12.0921 12.1716 11.9801C11.8144 11.8908 11.5973 11.5288 11.6866 11.1716ZM4.33331 12C3.49367 12 2.66665 12.809 2.66665 14C2.66665 14.3682 2.36817 14.6666 1.99998 14.6666C1.63179 14.6666 1.33331 14.3682 1.33331 14C1.33331 12.2454 2.59562 10.6666 4.33331 10.6666H8.99998C10.7377 10.6666 12 12.2454 12 14C12 14.3682 11.7015 14.6666 11.3333 14.6666C10.9651 14.6666 10.6666 14.3682 10.6666 14C10.6666 12.809 9.83962 12 8.99998 12H4.33331Z" fill="white"/>
</g>
</svg>
