<svg width="16" height="16" viewBox="0 0 16 16" fill="none" xmlns="http://www.w3.org/2000/svg">
<g id="user">
<path id="Icon" d="M8.00002 2.66665C6.52726 2.66665 5.33335 3.86056 5.33335 5.33333C5.33335 6.80609 6.52726 8.00001 8.00002 8.00001C9.47279 8.00001 10.6667 6.80609 10.6667 5.33333C10.6667 3.86056 9.47279 2.66665 8.00002 2.66665ZM4.00001 5.33333C4.00001 3.12418 5.79088 1.33331 8.00002 1.33331C10.2092 1.33331 12 3.12418 12 5.33333C12 7.54248 10.2092 9.33334 8.00002 9.33334C5.79088 9.33334 4.00001 7.54248 4.00001 5.33333ZM5.33335 12C4.22877 12 3.33334 12.8955 3.33334 14C3.33334 14.3682 3.03486 14.6667 2.66667 14.6667C2.29848 14.6667 2 14.3682 2 14C2 12.1591 3.49239 10.6667 5.33335 10.6667H10.6667C12.5077 10.6667 14 12.1591 14 14C14 14.3682 13.7016 14.6667 13.3334 14.6667C12.9652 14.6667 12.6667 14.3682 12.6667 14C12.6667 12.8955 11.7713 12 10.6667 12H5.33335Z" fill="white"/>
</g>
</svg>
