<svg xmlns="http://www.w3.org/2000/svg" viewBox="0 0 760 180" role="img" aria-labelledby="title desc">
  <title id="title">LangGraph plan-and-execute workflow</title>
  <desc id="desc">A six-node LangGraph state machine drawn left to right. START flows into provision, plan, execute, check, summarize, cleanup, END. The check node has a dashed retry edge that loops back over the row to execute when a step fails, and a solid done edge forward to summarize when the plan is complete.</desc>

  <rect x="0" y="0" width="760" height="180" fill="#ffffff"/>

  <defs>
    <marker id="arrow" viewBox="0 0 10 10" refX="9" refY="5" markerWidth="7" markerHeight="7" orient="auto-start-reverse">
      <path d="M0,0 L10,5 L0,10 z" fill="#1a1a1a"/>
    </marker>
  </defs>

  <style>
    .node { fill: none; stroke: #1a1a1a; stroke-width: 1.6; }
    .endpoint { fill: #1a1a1a; fill-opacity: 0.08; stroke: #1a1a1a; stroke-width: 1.4; }
    .label { font-family: sans-serif; font-size: 14px; font-weight: 500; fill: #1a1a1a; text-anchor: middle; dominant-baseline: middle; }
    .sublabel { font-family: sans-serif; font-size: 11px; fill: #1a1a1a; fill-opacity: 0.65; text-anchor: middle; dominant-baseline: middle; }
    .edge { stroke: #1a1a1a; stroke-width: 1.5; fill: none; }
    .edge-dashed { stroke: #1a1a1a; stroke-width: 1.5; fill: none; stroke-dasharray: 5 4; }
    .edge-label { font-family: sans-serif; font-size: 12px; font-weight: 500; fill: #1a1a1a; fill-opacity: 0.9; text-anchor: middle; }
  </style>

  <rect class="endpoint" x="20" y="98" width="52" height="24" rx="12"/>
  <text class="label" x="46" y="111">START</text>

  <line class="edge" x1="72" y1="110" x2="85" y2="110" marker-end="url(#arrow)"/>

  <rect class="node" x="86" y="92" width="90" height="36" rx="6"/>
  <text class="label" x="131" y="108">provision</text>
  <text class="sublabel" x="131" y="122">create sandbox</text>

  <line class="edge" x1="176" y1="110" x2="189" y2="110" marker-end="url(#arrow)"/>

  <rect class="node" x="190" y="92" width="90" height="36" rx="6"/>
  <text class="label" x="235" y="108">plan</text>
  <text class="sublabel" x="235" y="122">LLM list[str]</text>

  <line class="edge" x1="280" y1="110" x2="293" y2="110" marker-end="url(#arrow)"/>

  <rect class="node" x="294" y="92" width="90" height="36" rx="6"/>
  <text class="label" x="339" y="108">execute</text>
  <text class="sublabel" x="339" y="122">run_code()</text>

  <line class="edge" x1="384" y1="110" x2="397" y2="110" marker-end="url(#arrow)"/>

  <rect class="node" x="398" y="92" width="90" height="36" rx="6"/>
  <text class="label" x="443" y="108">check</text>
  <text class="sublabel" x="443" y="122">advance | retry</text>

  <path class="edge-dashed" d="M 443 92 C 443 30 339 30 339 92" marker-end="url(#arrow)"/>

  <line class="edge" x1="488" y1="110" x2="501" y2="110" marker-end="url(#arrow)"/>
  <text class="edge-label" x="494" y="148">done</text>

  <rect class="node" x="502" y="92" width="90" height="36" rx="6"/>
  <text class="label" x="547" y="108">summarize</text>
  <text class="sublabel" x="547" y="122">LLM answer</text>

  <line class="edge" x1="592" y1="110" x2="605" y2="110" marker-end="url(#arrow)"/>

  <rect class="node" x="606" y="92" width="90" height="36" rx="6"/>
  <text class="label" x="651" y="108">cleanup</text>
  <text class="sublabel" x="651" y="122">sandbox.delete</text>

  <line class="edge" x1="696" y1="110" x2="709" y2="110" marker-end="url(#arrow)"/>

  <rect class="endpoint" x="710" y="98" width="42" height="24" rx="12"/>
  <text class="label" x="731" y="111">END</text>
</svg>
