<svg width="59" height="58" viewBox="0 0 59 58" fill="none" xmlns="http://www.w3.org/2000/svg">
<g clip-path="url(#clip0_420_4826)">
<path d="M2.75894 3.13327C2.49007 3.1298 2.2237 3.18523 1.97853 3.29567C1.73336 3.4061 1.51533 3.56886 1.33976 3.77253C1.16419 3.97619 1.03533 4.21582 0.96222 4.47458C0.889114 4.73335 0.873537 5.00498 0.916582 5.27041L8.73739 52.748C8.83484 53.329 9.13388 53.8571 9.58199 54.2395C10.0301 54.6219 10.5986 54.8342 11.1877 54.8391H48.7074C49.1489 54.8447 49.5779 54.6916 49.916 54.4076C50.2542 54.1235 50.4791 53.7274 50.5497 53.2915L58.3705 5.27962C58.4136 5.01419 58.398 4.74256 58.3249 4.48379C58.2518 4.22503 58.1229 3.9854 57.9473 3.78174C57.7718 3.57808 57.5537 3.41531 57.3086 3.30488C57.0634 3.19444 56.797 3.13901 56.5282 3.14248L2.75894 3.13327ZM35.6911 37.4472H23.7158L20.4732 20.5067H38.5928L35.6911 37.4472Z" fill="white"/>
<path d="M55.8836 20.5067H38.5931L35.6914 37.4472H23.716L9.57593 54.2311C10.0241 54.6186 10.5955 54.8341 11.188 54.8391H48.7168C49.1584 54.8447 49.5874 54.6916 49.9255 54.4076C50.2637 54.1235 50.4886 53.7274 50.5592 53.2915L55.8836 20.5067Z" fill="white"/>
</g>
<defs>
<clipPath id="clip0_420_4826">
<rect width="57.5" height="57.5" fill="white" transform="translate(0.916748 0.25)"/>
</clipPath>
</defs>
</svg>
