<svg width="60" height="58" viewBox="0 0 60 58" fill="none" xmlns="http://www.w3.org/2000/svg">
<path fill-rule="evenodd" clip-rule="evenodd" d="M30 0C13.7013 0 0.5 13.3057 0.5 29.7335C0.5 42.8906 8.94438 54.0035 20.6706 57.9432C22.1456 58.2034 22.6988 57.3114 22.6988 56.5309C22.6988 55.8247 22.6619 53.4832 22.6619 50.993C15.25 52.3682 13.3325 49.1718 12.7425 47.4993C12.4106 46.6445 10.9725 44.0056 9.71875 43.2994C8.68625 42.7419 7.21125 41.3668 9.68188 41.3296C12.005 41.2924 13.6644 43.4853 14.2175 44.3773C16.8725 48.8745 21.1131 47.6108 22.8094 46.8303C23.0675 44.8976 23.8419 43.5968 24.69 42.8534C18.1263 42.1101 11.2675 39.5456 11.2675 28.1725C11.2675 24.939 12.4106 22.263 14.2913 20.1816C13.9963 19.4383 12.9638 16.3906 14.5863 12.3022C14.5863 12.3022 17.0569 11.5217 22.6988 15.3499C25.0588 14.6809 27.5663 14.3464 30.0738 14.3464C32.5813 14.3464 35.0888 14.6809 37.4488 15.3499C43.0906 11.4846 45.5613 12.3022 45.5613 12.3022C47.1838 16.3906 46.1513 19.4383 45.8563 20.1816C47.7369 22.263 48.88 24.9018 48.88 28.1725C48.88 39.5827 41.9844 42.1101 35.4206 42.8534C36.49 43.7826 37.4119 45.5666 37.4119 48.3541C37.4119 52.331 37.375 55.5274 37.375 56.5309C37.375 57.3114 37.9281 58.2405 39.4031 57.9432C51.0556 54.0035 59.5 42.8534 59.5 29.7335C59.5 13.3057 46.2988 0 30 0Z" fill="white"/>
</svg>
