<svg width="61" height="58" viewBox="0 0 61 58" fill="none" xmlns="http://www.w3.org/2000/svg">
<path d="M59.1661 23.0176L59.0822 22.8034L50.9652 1.6192C50.8 1.204 50.5076 0.851786 50.1299 0.613092C49.7519 0.378453 49.311 0.265443 48.8668 0.289321C48.4225 0.313199 47.9963 0.472816 47.6457 0.746618C47.2989 1.02828 47.0474 1.40995 46.9253 1.83967L41.4446 18.6081H19.2515L13.7708 1.83967C13.652 1.40761 13.3999 1.02403 13.0504 0.743512C12.6998 0.46971 12.2736 0.310093 11.8293 0.286215C11.3851 0.262337 10.9442 0.375347 10.5662 0.609986C10.1893 0.849644 9.89718 1.20155 9.73093 1.61609L1.59836 22.7909L1.51762 23.0052C0.349135 26.0583 0.204904 29.4086 1.10668 32.5508C2.00845 35.6931 3.90733 38.457 6.51703 40.4258L6.54498 40.4475L6.6195 40.5003L18.9845 49.7602L25.1018 54.3902L28.828 57.2036C29.2639 57.5345 29.7961 57.7136 30.3434 57.7136C30.8907 57.7136 31.4229 57.5345 31.8587 57.2036L35.585 54.3902L41.7023 49.7602L54.1418 40.4444L54.1729 40.4196C56.7767 38.4504 58.6712 35.6893 59.5716 32.5513C60.472 29.4133 60.3297 26.0678 59.1661 23.0176Z" fill="white"/>
<path d="M59.1678 23.0174L59.084 22.8032C55.1288 23.615 51.4018 25.2903 48.1691 27.7095L30.342 41.1895C36.4127 45.7822 41.6978 49.7724 41.6978 49.7724L54.1374 40.4566L54.1684 40.4318C56.776 38.4627 58.6734 35.6999 59.575 32.5592C60.4767 29.4185 60.3338 26.0699 59.1678 23.0174Z" fill="white"/>
<path d="M18.9856 49.7725L25.1029 54.4024L28.8292 57.2158C29.265 57.5468 29.7972 57.7259 30.3445 57.7259C30.8918 57.7259 31.424 57.5468 31.8598 57.2158L35.5861 54.4024L41.7034 49.7725C41.7034 49.7725 36.4121 45.7698 30.3414 41.1895C24.2707 45.7698 18.9856 49.7725 18.9856 49.7725Z" fill="white"/>
<path d="M12.5101 27.7105C9.28003 25.2864 5.55379 23.6067 1.59836 22.7918L1.51762 23.006C0.349135 26.0592 0.204904 29.4094 1.10668 32.5517C2.00845 35.6939 3.90733 38.4578 6.51703 40.4266L6.54498 40.4483L6.6195 40.5011L18.9845 49.7611C18.9845 49.7611 24.2634 45.7708 30.3403 41.1781L12.5101 27.7105Z" fill="white"/>
</svg>
