<svg width="200" height="44" viewBox="0 0 200 44" fill="none" xmlns="http://www.w3.org/2000/svg">
<rect x="0.5" y="1" width="199" height="42" stroke="white"/>
<path d="M107.072 19.692L107.168 18.06H107.072L105.984 18.972L103.632 20.46V18.956L106.88 16.62H108.416V27.5H107.072V19.692ZM112.762 25.484C114.159 24.2893 115.189 23.388 115.85 22.78C116.511 22.1613 117.061 21.5747 117.498 21.02C117.733 20.7427 117.893 20.4973 117.978 20.284C118.063 20.06 118.106 19.7933 118.106 19.484C118.106 19.0147 118.042 18.652 117.914 18.396C117.797 18.1293 117.594 17.9427 117.306 17.836C117.018 17.7293 116.607 17.676 116.074 17.676C115.562 17.676 115.162 17.724 114.874 17.82C114.586 17.9053 114.373 18.06 114.234 18.284C114.095 18.4973 114.005 18.8067 113.962 19.212H112.538C112.602 18.4867 112.746 17.932 112.97 17.548C113.205 17.1533 113.562 16.876 114.042 16.716C114.522 16.5453 115.194 16.46 116.058 16.46C116.954 16.46 117.642 16.5507 118.122 16.732C118.613 16.9133 118.959 17.2227 119.162 17.66C119.365 18.0973 119.466 18.716 119.466 19.516C119.466 20.0067 119.391 20.4227 119.242 20.764C119.093 21.1053 118.81 21.5 118.394 21.948C117.615 22.7693 116.933 23.468 116.346 24.044C115.759 24.6093 115.039 25.26 114.186 25.996V26.22H119.706V27.5H112.762V25.484ZM127.428 17.932H121.908V16.62H128.724V18.284L124.084 27.66H122.548L127.428 17.932ZM133.821 25.052H136.253V27.5H133.821V25.052ZM144.471 27.66C143.661 27.66 143.053 27.6067 142.647 27.5C142.242 27.3827 141.927 27.1587 141.703 26.828C141.479 26.4973 141.282 25.9747 141.111 25.26C141.015 24.8547 140.941 24.412 140.887 23.932C140.834 23.452 140.807 22.828 140.807 22.06C140.807 21.3027 140.834 20.684 140.887 20.204C140.951 19.724 141.031 19.276 141.127 18.86C141.298 18.1453 141.49 17.6227 141.703 17.292C141.927 16.9613 142.242 16.7427 142.647 16.636C143.053 16.5187 143.661 16.46 144.471 16.46C145.282 16.46 145.89 16.5187 146.295 16.636C146.701 16.7427 147.01 16.9613 147.223 17.292C147.447 17.6227 147.645 18.1453 147.815 18.86C147.911 19.276 147.986 19.724 148.039 20.204C148.103 20.684 148.135 21.3027 148.135 22.06C148.135 22.828 148.109 23.452 148.055 23.932C148.002 24.412 147.927 24.8547 147.831 25.26C147.661 25.9747 147.463 26.4973 147.239 26.828C147.015 27.1587 146.701 27.3827 146.295 27.5C145.89 27.6067 145.282 27.66 144.471 27.66ZM142.167 22.06C142.167 22.8707 142.21 23.5853 142.295 24.204L146.423 18.748C146.295 18.3427 146.093 18.06 145.815 17.9C145.549 17.7293 145.101 17.644 144.471 17.644C143.959 17.644 143.565 17.6973 143.287 17.804C143.021 17.9107 142.823 18.076 142.695 18.3C142.578 18.524 142.482 18.8493 142.407 19.276C142.333 19.724 142.274 20.1293 142.231 20.492C142.189 20.8547 142.167 21.3773 142.167 22.06ZM142.551 25.452C142.669 25.8253 142.866 26.092 143.143 26.252C143.421 26.4013 143.863 26.476 144.471 26.476C144.983 26.476 145.373 26.4227 145.639 26.316C145.917 26.2093 146.114 26.044 146.231 25.82C146.359 25.596 146.461 25.2707 146.535 24.844C146.61 24.396 146.669 23.9907 146.711 23.628C146.754 23.2653 146.775 22.7427 146.775 22.06C146.775 21.3027 146.733 20.6147 146.647 19.996L142.551 25.452ZM152.689 25.052H155.121V27.5H152.689V25.052ZM163.339 27.66C162.528 27.66 161.92 27.6067 161.515 27.5C161.109 27.3827 160.795 27.1587 160.571 26.828C160.347 26.4973 160.149 25.9747 159.979 25.26C159.883 24.8547 159.808 24.412 159.755 23.932C159.701 23.452 159.675 22.828 159.675 22.06C159.675 21.3027 159.701 20.684 159.755 20.204C159.819 19.724 159.899 19.276 159.995 18.86C160.165 18.1453 160.357 17.6227 160.571 17.292C160.795 16.9613 161.109 16.7427 161.515 16.636C161.92 16.5187 162.528 16.46 163.339 16.46C164.149 16.46 164.757 16.5187 165.163 16.636C165.568 16.7427 165.877 16.9613 166.091 17.292C166.315 17.6227 166.512 18.1453 166.683 18.86C166.779 19.276 166.853 19.724 166.907 20.204C166.971 20.684 167.003 21.3027 167.003 22.06C167.003 22.828 166.976 23.452 166.923 23.932C166.869 24.412 166.795 24.8547 166.699 25.26C166.528 25.9747 166.331 26.4973 166.107 26.828C165.883 27.1587 165.568 27.3827 165.163 27.5C164.757 27.6067 164.149 27.66 163.339 27.66ZM161.035 22.06C161.035 22.8707 161.077 23.5853 161.163 24.204L165.291 18.748C165.163 18.3427 164.96 18.06 164.683 17.9C164.416 17.7293 163.968 17.644 163.339 17.644C162.827 17.644 162.432 17.6973 162.155 17.804C161.888 17.9107 161.691 18.076 161.563 18.3C161.445 18.524 161.349 18.8493 161.275 19.276C161.2 19.724 161.141 20.1293 161.099 20.492C161.056 20.8547 161.035 21.3773 161.035 22.06ZM161.419 25.452C161.536 25.8253 161.733 26.092 162.011 26.252C162.288 26.4013 162.731 26.476 163.339 26.476C163.851 26.476 164.24 26.4227 164.507 26.316C164.784 26.2093 164.981 26.044 165.099 25.82C165.227 25.596 165.328 25.2707 165.403 24.844C165.477 24.396 165.536 23.9907 165.579 23.628C165.621 23.2653 165.643 22.7427 165.643 22.06C165.643 21.3027 165.6 20.6147 165.515 19.996L161.419 25.452ZM171.556 25.052H173.988V27.5H171.556V25.052ZM182.542 19.692L182.638 18.06H182.542L181.454 18.972L179.102 20.46V18.956L182.35 16.62H183.886V27.5H182.542V19.692Z" fill="var(--primary-text-color)"/>
<path d="M14 19.1957L23 13.5L32 19.1957V30.5H14V19.1957Z" fill="#2ECC71"/>
</svg>
